<?xml version="1.0" encoding="utf-8"?>
<!-- Generator: Adobe Illustrator 17.0.0, SVG Export Plug-In . SVG Version: 6.00 Build 0)  -->
<!DOCTYPE svg PUBLIC "-//W3C//DTD SVG 1.1//EN" "http://www.w3.org/Graphics/SVG/1.1/DTD/svg11.dtd">
<svg version="1.1" id="圖層_1" xmlns="http://www.w3.org/2000/svg" xmlns:xlink="http://www.w3.org/1999/xlink" x="0px" y="0px"
	 width="1295px" height="160px" viewBox="-47.5 0 1295 160" enable-background="new -47.5 0 1295 160" xml:space="preserve">
<path fill="#FFFFFF" d="M779.333,122.59c37.699-19.669,64.667-1.167,75.864,6.424c-3.697-18.09,43.803-45.09,75.301-23.987
	c15.033-53.253,85.52-69.378,124.223-25.15c15.823-10.547,34.945-2.953,36.805,9.224c21.14-4.844,34.473,14.49,32.693,23.108
	c32.527-0.16,33.272,47.792,33.272,47.792H756.5C756.5,160,748.667,138.59,779.333,122.59z"/>
<path fill="#FFFFFF" d="M285.114,96.833c19.631-15.754,54.131-4.701,66.631,14.913c15.08-12.879,51.375-13.447,63.5,10.678
	c17.617-26.492,119.166-28.278,152.5-4.838C604,117,617.07,136.362,617.07,157.165c-49.042,0-512.656,0-567.299,0
	C46.876,146.82,54,122,81.835,119.185C64.026,87.55,70.773,20.646,149.403,5.379C229-10.076,278.457,40.009,285.114,96.833z"/>
</svg>
