<?xml version="1.0" encoding="utf-8"?>
<!-- Generator: Adobe Illustrator 17.0.0, SVG Export Plug-In . SVG Version: 6.00 Build 0)  -->
<!DOCTYPE svg PUBLIC "-//W3C//DTD SVG 1.1//EN" "http://www.w3.org/Graphics/SVG/1.1/DTD/svg11.dtd">
<svg version="1.1" id="圖層_1" xmlns="http://www.w3.org/2000/svg" xmlns:xlink="http://www.w3.org/1999/xlink" x="0px" y="0px"
	 width="1295px" height="180px" viewBox="0 0 1295 180" enable-background="new 0 0 1295 180" xml:space="preserve">
<path fill="#FFFFFF" d="M1191.802,127.6c2.704-6.032-5.17-15.462-12.751-14.281c-0.008-1.74,0.357-3.269,0.451-4.988
	c0.461-8.47-1.073-14.884-11.946-22.146c-8.915-5.953-38.057-9.077-41.263,6.657c-4.461-1.815-11.944-0.75-15.726,0.713
	c-6.648,2.574-12.747,8.489-12.997,14.976c-10.601-2.786-21.795,4.856-22.268,14.189c-15.644,0.863-18.432,12.889-18.432,12.889
	l142.287,0.984C1199.155,136.593,1202.016,128.148,1191.802,127.6z"/>
<path fill="#FFFFFF" d="M80.785,74.362c-3.233-4.664,6.181-11.955,15.245-11.041c0.01-1.345-0.838-2.557-0.539-3.856
	c6.085-26.463,61.339-25.796,64.252-4.807c9.333-9.662,31.667-6.996,33.703,4.961c12.674-2.154,26.058,3.754,26.623,10.97
	c18.703,0.668,22.037,9.965,22.037,9.965L71.994,81.315C71.994,81.315,68.573,74.786,80.785,74.362z"/>
<path fill="#FFFFFF" d="M537.086,56.874c-32.796-43.253,37.164-80.378,62.372-38.599c20.011-14.589,46.671,0,42.867,20.432
	c36.401,1.626,36.401,33.931,36.401,33.931l-211.214,1.425C467.512,74.064,455.844,61.627,537.086,56.874z"/>
</svg>
