<?xml version="1.0" encoding="utf-8"?>
<!-- Generator: Adobe Illustrator 17.0.0, SVG Export Plug-In . SVG Version: 6.00 Build 0)  -->
<!DOCTYPE svg PUBLIC "-//W3C//DTD SVG 1.1//EN" "http://www.w3.org/Graphics/SVG/1.1/DTD/svg11.dtd">
<svg version="1.1" id="圖層_1" xmlns="http://www.w3.org/2000/svg" xmlns:xlink="http://www.w3.org/1999/xlink" x="0px" y="0px"
	 width="1295px" height="230px" viewBox="0 0 1295 230" enable-background="new 0 0 1295 230" xml:space="preserve">
<linearGradient id="SVGID_1_" gradientUnits="userSpaceOnUse" x1="647.3568" y1="45.5939" x2="647.3568" y2="212.6319">
	<stop  offset="0" style="stop-color:#000000;stop-opacity:0"/>
	<stop  offset="0.746" style="stop-color:#000000"/>
</linearGradient>
<path opacity="0.2" fill="url(#SVGID_1_)" d="M1295.204,195.006c-0.002-2.255-0.016-26.506-0.016-26.506s-0.02,0-0.055,0.001
	v-34.419V30.149V14.722H-0.49v15.427v103.933v56.503h0.058V195v4.5c0,0,9.574,3.12,21.642,2.8c34.79-0.925,30.79,3.075,45.915,6.325
	c15.832,5.27,31.859,10.128,47.029-0.049c1.807-1.213,4.983-5.116,7.499-6.992c1.606-0.416,3.038-0.768,4.235-1.025
	c3.581,0.487,2.049,3.869,5.816,5.008c6.67,2.015,14.766,5.201,20.529,0.004c1.225,0.072,2.478,0.113,3.755,0.125
	c14.376,16.597,39.938-2.188,57.494-7.063c0.055,0.328,0.134,0.643,0.235,0.945c-3.246,12.101,17.749,12.232,24.506,7.771
	c11.907,15.625,32.297,12.305,48.794,7.231c15.897-4.89,34.354,4.683,50.538-6.229c18.168,16.606,33.904-1.52,49.802-1.785
	c5.568-0.094,13.922,3.285,21.019,2.906c8.836,0.323,14.822-4.924,20.555-9.002c1.171,2.092,2.956,4.264,5.453,6.449
	c13.854,12.13,29.896,12.434,46.563,8.098c5.937-0.382,10.964-2.927,15.577-6.111c5.026-1.729,11.802-3.401,22.332-4.529
	c5.842-0.626,19.796,0.512,26.649,1.357c0.033,0.004,0.068,0.011,0.104,0.015c0.16,0.065,0.317,0.118,0.469,0.142
	c0.455,0.072,0.92,0.112,1.391,0.127c9.354,1.496,20.722,5.162,30.724-2.648c8.069,6.154,24.381,8.097,29.997-1.016
	c13.031,8.488,47.838,19.572,56.133,0.164c0.903,0.391,2.127,0.733,3.533,1.01c6.627,2.631,18.293,1.668,22.3-2.83
	c0.501,0.117,0.979,0.209,1.467,0.312c12.45,12.664,43.104,14.917,56.716,4.823c9.868,9.717,22.883,8.146,28.673,2.781
	c0.896,0.58,1.979,1.125,3.342,1.619c6.36,7.588,16.27,1.432,23.839,0.369c7.988-1.119,18.983,1.687,29.998,1.15
	c0.146-0.007,0.312-0.018,0.476-0.027c1.018,0.42,1.989,0.789,2.94,1.129c0.138,0.051,0.272,0.098,0.409,0.146
	c0.103,0.035,0.207,0.074,0.309,0.109c8.422,3.045,16.253,4.367,25.875,0.705c4.323-1.645,8.756-4.824,13.342-5.396
	c4.639-0.578,10.431,0.716,15.311-0.009c5.329-0.791,9.995-4.596,13.322-5.344c3.877-0.871,9.647,2.139,14.035,3
	c10.68,2.101,21.635,2.332,31.298-2.666c1.439-0.746,4.597-2.262,7.099-4.045c1.414-0.459,3.024-0.793,4.923-0.9
	c10.3-0.59,13.148,10.628,24,12.628c8.295,1.528,20.574-1.015,26.529-7.317c3.247,2.275,6.048,3.594,9.442,4.131
	c2.026,0.92,4.365,1.041,9.295-0.024c11.146-2.409,21.972-1.254,32.916-1.935c2.636-0.164,4.328-1.326,6.02-2.345
	c4.053,1.812,7.964,3.147,12.341,3.802c1.182,1.108,2.37,2.053,3.421,2.395c10.89,3.531,19.768-3.16,28.233-7.172
	c1.188-0.563,2.213-1.04,3.127-1.445c0.684-0.081,1.377-0.141,2.098-0.148c4.366-0.051,8.175,1.572,11.757,3.111
	c0.794,0.545,1.677,1.133,2.671,1.766c9.699,6.183,11.568,4.197,18.495,1.656c2.13,7.745,13.456,8.789,20.023,3.848
	c1.757,1.136,3.392,1.732,4.882,1.886c5.033,4.021,13.62-0.915,18.651-5.44c3.637,1.858,7.212,3.135,10.729,3.936
	c5.51,2.916,12.311,4.242,18.064,3.334c3.485-0.551,6.209-2.773,8.955-4.559c3.635-0.906,7.218-1.98,10.758-3.058
	c1.13,0.247,10.69-5.623,25.065-4.498c7.047,0.552,17.467,3.835,24.202-3.5c0-0.519-0.001-2.211-0.003-4.497
	C1295.202,195.008,1295.203,195.007,1295.204,195.006z"/>
</svg>
