<?xml version="1.0" encoding="utf-8"?>
<!-- Generator: Adobe Illustrator 17.0.0, SVG Export Plug-In . SVG Version: 6.00 Build 0)  -->
<!DOCTYPE svg PUBLIC "-//W3C//DTD SVG 1.1//EN" "http://www.w3.org/Graphics/SVG/1.1/DTD/svg11.dtd">
<svg version="1.1" id="圖層_1" xmlns="http://www.w3.org/2000/svg" xmlns:xlink="http://www.w3.org/1999/xlink" x="0px" y="0px"
	 width="1295px" height="230px" viewBox="0 0 1295 230" enable-background="new 0 0 1295 230" xml:space="preserve">
<path opacity="0.12" fill="#0C0C0C" enable-background="new    " d="M1295.188,173c0,0-16.438,0.25-28.938,9
	c-11.297,7.908-20.989,8.563-36.278,3.991c-14.418-4.312-17.461,0.336-31.878-0.119c-11.466-25.587-41.245-15.319-65.579-6.151
	c-13.876-6.324-37.437,3.729-49.378,1.023c-20.402-4.623-34.416-26.307-50.76-5.951c-0.867,0.531-1.688,1.154-2.454,1.88
	c-4.993-15.034-31.356-19.903-45.977-18.876c-17.793,1.251-29.989,12.889-46.854,19.071c-11.304-22.988-53.966-6.097-78.549,3.714
	c-2.552-1.209-5.076-2.9-8.354-2.836c-6.561,0.132-9.215,5.811-14.021,6.533c-6.571,0.988-8.189-1.146-14.497-3.35
	c-10.475-3.662-19.604-5.199-30.181-0.533c-4.86,2.145-10.433,7.215-15.877,8.533c-3.756-3.275-7.913-8.383-11.42-10.16
	c-14.933-7.566-24.527-0.514-38.221,5.127c-15.671-16.836-29.719-13.703-48.272-9.073c-15.995,3.991-5.689,4.036-20.004-0.55
	c-7.359-2.357-12.554-5.988-20.749-7.254c-14.911-2.303-31.297-0.149-44.274,7.703c-4.229,2.559-9.992,8.068-16.283,13.764
	c-5.48-2.371-9.163-6.163-16.866-7.37c-12.628-1.978-15.076,4.905-23.89,10.743c-0.291,0.193-0.565,0.371-0.838,0.543
	c-1.156-1.65-2.227-3.104-3.127-4.086c-13.443-14.684-30.22-13.409-47.323-3.474c-2.59-15.811-21.82-19.396-36.45-17.823
	c-14.992,1.609-18.841,10.61-28.701,15.25c-0.119,0.057-0.238,0.105-0.356,0.16c-5.741-4.146-3.419-9.412-15.798-1.869
	c-1.174,0.717-1.055,2.39-1.195,3.957c-3.768-0.434-7.586-1.238-11.477-2.014c-3.098-1.684-5.455-4.016-10.861-4.092
	c-3.66-0.053-6.566,0.957-9.094,2.369c-5.867,0.623-11.955,2.625-18.326,7.119c-0.398,0.154-0.794,0.309-1.189,0.461
	c-6.44-2.241-12.123-8.821-20.029-9.282c-5.822-0.341-10.995,2.151-16.066,4.376c-5.369,0.611-10.615,1.18-15.381,0.811
	c-15.113-1.168-29.696-16.688-46.502-1.123c-14.592-9.816-30.521-6.211-45.99-0.593c-7.549-3.265-14.435,3.831-21.846,8.248
	c-3.906,1.313-7.718,2.374-11.4,2.972c-5.636-1.354-10.258-9.211-18.541-10.069c-5.262-0.546-7.457,3.642-11.335,5.016
	c-17.245-7.87-32.777-22.516-54.681,0.409c-5.25,9.75-21.75-0.125-52.375-10.875c-14-4.5-37.185-5.25-37.185-5.25v26.5
	c0,0,9.574,3.12,21.642,2.8c34.79-0.925,30.79,3.075,45.915,6.325c15.832,5.27,31.859,10.128,47.029-0.049
	c1.807-1.213,4.983-5.116,7.499-6.992c1.606-0.416,3.038-0.768,4.235-1.025c3.581,0.487,2.049,3.869,5.816,5.008
	c6.67,2.015,14.766,5.201,20.529,0.004c1.225,0.072,2.478,0.113,3.755,0.125c14.535,16.781,40.511-2.618,58.079-7.229
	c-4.865,13.202,17.197,13.476,24.156,8.882c11.907,15.625,32.297,12.305,48.794,7.231c15.897-4.89,34.354,4.683,50.538-6.229
	c18.168,16.606,33.904-1.52,49.802-1.785c5.568-0.094,13.922,3.285,21.019,2.906c8.836,0.323,14.822-4.924,20.555-9.002
	c1.171,2.092,2.956,4.264,5.453,6.449c13.854,12.13,29.896,12.434,46.563,8.098c5.937-0.382,10.964-2.927,15.577-6.111
	c5.026-1.729,11.802-3.401,22.332-4.529c5.842-0.626,19.796,0.512,26.649,1.357c0.033,0.004,0.068,0.011,0.104,0.015
	c0.16,0.065,0.317,0.118,0.469,0.142c0.455,0.072,0.92,0.112,1.391,0.127c9.354,1.496,20.722,5.162,30.724-2.648
	c8.069,6.154,24.381,8.097,29.997-1.016c13.031,8.488,47.838,19.572,56.133,0.164c0.903,0.391,2.127,0.733,3.533,1.01
	c6.627,2.631,18.293,1.668,22.3-2.83c0.501,0.117,0.979,0.209,1.467,0.312c12.45,12.664,43.104,14.917,56.716,4.823
	c9.868,9.717,22.883,8.146,28.673,2.781c0.896,0.58,1.979,1.125,3.342,1.619c6.36,7.588,16.27,1.432,23.839,0.369
	c7.988-1.119,18.983,1.687,29.998,1.15c0.146-0.007,0.312-0.018,0.476-0.027c1.018,0.42,1.989,0.789,2.94,1.129
	c0.138,0.051,0.272,0.098,0.409,0.146c0.103,0.035,0.207,0.074,0.309,0.109c8.422,3.045,16.253,4.367,25.875,0.705
	c4.323-1.645,8.756-4.824,13.342-5.396c4.639-0.578,10.431,0.716,15.311-0.009c5.329-0.791,9.995-4.596,13.322-5.344
	c3.877-0.871,9.647,2.139,14.035,3c10.68,2.101,21.635,2.332,31.298-2.666c1.439-0.746,4.597-2.262,7.099-4.045
	c1.414-0.459,3.024-0.793,4.923-0.9c10.3-0.59,13.148,10.628,24,12.628c8.295,1.528,20.574-1.015,26.529-7.317
	c3.247,2.275,6.048,3.594,9.442,4.131c2.026,0.92,4.365,1.041,9.295-0.024c11.146-2.409,21.972-1.254,32.916-1.935
	c2.636-0.164,4.328-1.326,6.02-2.345c4.053,1.812,7.964,3.147,12.341,3.802c1.182,1.108,2.37,2.053,3.421,2.395
	c10.89,3.531,19.768-3.16,28.233-7.172c1.188-0.563,2.213-1.04,3.127-1.445c0.684-0.081,1.377-0.141,2.098-0.148
	c4.366-0.051,8.175,1.572,11.757,3.111c0.794,0.545,1.677,1.133,2.671,1.766c9.699,6.183,11.568,4.197,18.495,1.656
	c2.13,7.745,13.456,8.789,20.023,3.848c1.757,1.136,3.392,1.732,4.882,1.886c5.033,4.021,13.62-0.915,18.651-5.44
	c3.637,1.858,7.212,3.135,10.729,3.936c5.51,2.916,12.311,4.242,18.064,3.334c3.485-0.551,6.209-2.773,8.955-4.559
	c3.635-0.906,7.218-1.98,10.758-3.058c1.13,0.247,10.69-5.623,25.065-4.498c7.047,0.552,17.467,3.835,24.202-3.5
	C1295.202,197.251,1295.188,173,1295.188,173z"/>
<linearGradient id="SVGID_1_" gradientUnits="userSpaceOnUse" x1="792.4815" y1="-18.5552" x2="792.4815" y2="-129.9729" gradientTransform="matrix(1 0 0 -1 -145.16 0.04)">
	<stop  offset="0" style="stop-color:#A2D8E3;stop-opacity:0"/>
	<stop  offset="1" style="stop-color:#A2D8E3"/>
</linearGradient>
<path fill="url(#SVGID_1_)" d="M1295.133,14.722v175.863H-0.364L-0.49,14.722C-0.49,14.722,47,8.944,161,9
	s81.971,7.313,235.979,7.313S537,9,659,9s137.027,8.185,232.008,8.185C985.989,17.185,1035,2.057,1132,2.057
	S1295.133,14.722,1295.133,14.722z"/>
<path fill="#FFFFFF" d="M1295.188,168.5c0,0-16.438,0.25-28.938,9c-11.297,7.908-20.989,8.563-36.278,3.991
	c-14.418-4.312-17.461,0.336-31.878-0.119c-11.466-25.587-41.245-15.319-65.579-6.151c-13.876-6.324-37.437,3.729-49.378,1.023
	c-20.402-4.623-34.416-26.307-50.76-5.951c-0.867,0.531-1.688,1.154-2.454,1.88c-4.993-15.034-31.356-19.903-45.977-18.876
	c-17.793,1.251-29.989,12.889-46.854,19.071c-11.304-22.988-53.966-6.097-78.549,3.714c-2.552-1.209-5.076-2.9-8.354-2.836
	c-6.561,0.132-9.215,5.811-14.021,6.533c-6.571,0.988-8.189-1.146-14.497-3.35c-10.475-3.662-19.604-5.199-30.181-0.533
	c-4.86,2.145-10.433,7.215-15.877,8.533c-3.756-3.275-7.913-8.383-11.42-10.16c-14.933-7.566-24.527-0.514-38.221,5.127
	c-15.671-16.836-29.719-13.703-48.272-9.073c-15.995,3.991-5.689,4.036-20.004-0.55c-7.359-2.357-12.554-5.988-20.749-7.254
	c-14.911-2.303-31.297-0.149-44.274,7.703c-4.229,2.559-9.992,8.068-16.283,13.764c-5.48-2.371-9.163-6.163-16.866-7.37
	c-12.628-1.978-15.076,4.905-23.89,10.743c-0.291,0.193-0.565,0.371-0.838,0.543c-1.156-1.65-2.227-3.104-3.127-4.086
	c-13.443-14.684-30.22-13.409-47.323-3.474c-2.59-15.811-21.82-19.396-36.45-17.823c-14.992,1.609-18.841,10.61-28.701,15.25
	c-0.119,0.057-0.238,0.105-0.356,0.16c-5.741-4.146-3.419-9.412-15.798-1.869c-1.174,0.717-1.055,2.39-1.195,3.957
	c-3.768-0.434-7.586-1.238-11.477-2.014c-3.098-1.684-5.455-4.016-10.861-4.092c-3.66-0.053-6.566,0.957-9.094,2.369
	c-5.867,0.623-11.955,2.625-18.326,7.119c-0.398,0.154-0.794,0.309-1.189,0.461c-6.44-2.241-12.123-8.821-20.029-9.282
	c-5.822-0.341-10.995,2.151-16.066,4.376c-5.369,0.611-10.615,1.18-15.381,0.811c-15.113-1.168-29.696-16.688-46.502-1.123
	c-14.592-9.816-30.521-6.211-45.99-0.593c-7.549-3.265-14.435,3.831-21.846,8.248c-3.906,1.313-7.718,2.374-11.4,2.972
	c-5.636-1.354-10.258-9.211-18.541-10.069c-5.262-0.546-7.457,3.642-11.335,5.016c-17.245-7.87-32.777-22.516-54.681,0.409
	c-5.25,9.75-21.75-0.125-52.375-10.875c-14-4.5-37.185-5.25-37.185-5.25V195c0,0,9.574,3.12,21.642,2.8
	c34.79-0.925,30.79,3.075,45.915,6.325c15.832,5.27,31.859,10.128,47.029-0.049c1.807-1.213,4.983-5.116,7.499-6.992
	c1.606-0.416,3.038-0.768,4.235-1.025c3.581,0.487,2.049,3.869,5.816,5.008c6.67,2.015,14.766,5.201,20.529,0.004
	c1.225,0.072,2.478,0.113,3.755,0.125c14.535,16.781,40.511-2.618,58.079-7.229c-4.865,13.202,17.197,13.476,24.156,8.882
	c11.907,15.625,32.297,12.305,48.794,7.231c15.897-4.89,34.354,4.683,50.538-6.229c18.168,16.606,33.904-1.52,49.802-1.785
	c5.568-0.094,13.922,3.285,21.019,2.906c8.836,0.323,14.822-4.924,20.555-9.002c1.171,2.092,2.956,4.264,5.453,6.449
	c13.854,12.13,29.896,12.434,46.563,8.098c5.937-0.382,10.964-2.927,15.577-6.111c5.026-1.729,11.802-3.401,22.332-4.529
	c5.842-0.626,19.796,0.512,26.649,1.357c0.033,0.004,0.068,0.011,0.104,0.015c0.16,0.065,0.317,0.118,0.469,0.142
	c0.455,0.072,0.92,0.112,1.391,0.127c9.354,1.496,20.722,5.162,30.724-2.648c8.069,6.154,24.381,8.097,29.997-1.016
	c13.031,8.488,47.838,19.572,56.133,0.164c0.903,0.391,2.127,0.733,3.533,1.01c6.627,2.631,18.293,1.668,22.3-2.83
	c0.501,0.117,0.979,0.209,1.467,0.312c12.45,12.664,43.104,14.917,56.716,4.823c9.868,9.717,22.883,8.146,28.673,2.781
	c0.896,0.58,1.979,1.125,3.342,1.619c6.36,7.588,16.27,1.432,23.839,0.369c7.988-1.119,18.983,1.687,29.998,1.15
	c0.146-0.007,0.312-0.018,0.476-0.027c1.018,0.42,1.989,0.789,2.94,1.129c0.138,0.051,0.272,0.098,0.409,0.146
	c0.103,0.035,0.207,0.074,0.309,0.109c8.422,3.045,16.253,4.367,25.875,0.705c4.323-1.645,8.756-4.824,13.342-5.396
	c4.639-0.578,10.431,0.716,15.311-0.009c5.329-0.791,9.995-4.596,13.322-5.344c3.877-0.871,9.647,2.139,14.035,3
	c10.68,2.101,21.635,2.332,31.298-2.666c1.439-0.746,4.597-2.262,7.099-4.045c1.414-0.459,3.024-0.793,4.923-0.9
	c10.3-0.59,13.148,10.628,24,12.628c8.295,1.528,20.574-1.015,26.529-7.317c3.247,2.275,6.048,3.594,9.442,4.131
	c2.026,0.92,4.365,1.041,9.295-0.024c11.146-2.409,21.972-1.254,32.916-1.935c2.636-0.164,4.328-1.326,6.02-2.345
	c4.053,1.812,7.964,3.147,12.341,3.802c1.182,1.108,2.37,2.053,3.421,2.395c10.89,3.531,19.768-3.16,28.233-7.172
	c1.188-0.563,2.213-1.04,3.127-1.445c0.684-0.081,1.377-0.141,2.098-0.148c4.366-0.051,8.175,1.572,11.757,3.111
	c0.794,0.545,1.677,1.133,2.671,1.766c9.699,6.183,11.568,4.197,18.495,1.656c2.13,7.745,13.456,8.789,20.023,3.848
	c1.757,1.136,3.392,1.732,4.882,1.886c5.033,4.021,13.62-0.915,18.651-5.44c3.637,1.858,7.212,3.135,10.729,3.936
	c5.51,2.916,12.311,4.242,18.064,3.334c3.485-0.551,6.209-2.773,8.955-4.559c3.635-0.906,7.218-1.98,10.758-3.058
	c1.13,0.247,10.69-5.623,25.065-4.498c7.047,0.552,17.467,3.835,24.202-3.5C1295.202,192.751,1295.188,168.5,1295.188,168.5z"/>
<g opacity="0.2">
	<path fill="#FFFFFF" d="M251.783,62.289c9.303-1.75,12.791-1.777,25.027-0.925c7.111,0.498,14.141,0.193,20.7,1.089
		c17.366,2.377,32.05-1.426,50.646-1.145c19.54,0.297,23.823,0.401,52.004,0.162c20.375-0.174,35.871,5.067,42.025,8.468
		c-5.033,4.656-29.947-2.416-44.814-3.85c-17.057-1.645-34.664,8.333-48.771,3.64c-20.845-6.934-13.753-2.187-32.019,0.514
		c-17.285,2.555-29.386,0.713-44.998-0.317c-10.32-0.682-24.119-1.105-34.335-0.162c-13.075,1.205-23.843-1.966-36.417-2.194
		c-11.115-0.192-41.168,8.05-32.855,1.156C182.929,56.321,224.187,67.478,251.783,62.289z"/>
	<path fill="#FFFFFF" d="M462.793,95.908c10.623-0.89,12.891-5.291,23.525-2.273c9.024,2.561,14.36,1.275,24.256,0.778
		c9.361-0.468,12.455,3.333,19.957,4.283c5.028,0.635,8.604-1.569,13.397,2.4c3.442,2.852,1.22,3.126-4.644,0.807
		c-6.333-2.504-12.641-3.076-22.661-0.429c-4.737-5.94-13.998-1.631-21.653-0.554c-8.354,1.175-11.56-0.718-19.071-1.132
		c-3.375-0.187-5.585,1.986-9.26,1.898c-3.284-0.081-5.557-2.199-9.461-2.109c-3.479,0.077-16.93,1.257-16.93,1.257
		C438.53,92.049,459.559,96.179,462.793,95.908z"/>
	<path fill="#FFFFFF" d="M1207.841,58.621c10.623-0.481,12.891-2.865,23.525-1.231c9.024,1.387,14.36,0.69,24.256,0.421
		c9.361-0.254,12.455,1.805,19.957,2.319c5.028,0.344,8.604-0.85,13.397,1.3c3.442,1.544,1.22,1.692-4.644,0.437
		c-6.333-1.355-12.641-1.666-22.661-0.232c-4.737-3.216-13.998-0.884-21.653-0.3c-8.354,0.636-11.56-0.388-19.071-0.613
		c-3.375-0.101-5.585,1.075-9.26,1.028c-3.284-0.044-5.557-1.19-9.461-1.142c-3.479,0.042-16.93,0.681-16.93,0.681
		C1183.578,56.531,1204.607,58.768,1207.841,58.621z"/>
	<path fill="#FFFFFF" d="M741.342,49.379c12.302-0.745,14.165-3.546,27.188-1.84c11.052,1.449,17.078,0.548,28.596,0.063
		c10.896-0.458,15.214,1.873,24.188,2.337c6.015,0.311,9.812-1.135,16.152,1.271c4.555,1.729,1.996,1.941-5.301,0.588
		c-7.884-1.459-15.387-1.707-26.662,0.13c-6.633-3.645-16.717-0.778-25.503,0.033c-9.587,0.884-13.69-0.249-22.579-0.376
		c-3.992-0.057-6.191,1.345-10.519,1.354c-3.869,0.008-6.916-1.282-11.48-1.159c-4.065,0.111-19.632,1.086-19.632,1.086
		C712.18,47.383,737.597,49.605,741.342,49.379z"/>
	<path fill="#FFFFFF" d="M940.193,68.37c4.662-0.217,7.645-1.966,11.477-2.185c6.633-0.379,9.639,1.475,15.572,1.878
		c10.18,0.69,16.969-1.496,27.188-0.331c10.143,1.158,21.091-0.241,31.255,1.858c5.521,1.141,10.627,1.245,11.567,4.082
		c-8.946-0.132-16.481-1.354-25.347-1.04c-4.707,0.167-7.294,0.97-12.471,0.485c-4.951-0.466-6.473-2.06-10.896-2.284
		c-5.167-0.264-9.183,0.276-13.879,0.784c-5.992,0.648-6.984,1.361-12.268,0.878c-5.745-0.525-4.485-1.208-11.039-0.621
		c-3.92,0.352-6.963,2.052-11.323,2.328c-3.047,0.193-5.534-1.388-7.879-1.271c-2.751,0.137-9.605-0.938-11.964-0.977
		c-7.843-0.127-10.914,1.027-4.72-2.472C920.722,66.516,933.195,68.697,940.193,68.37z"/>
	<path fill="#FFFFFF" d="M1115.841,110.667c-6.001,0.178-9.77,1.902-14.701,2.087c-8.534,0.322-12.485-1.561-20.152-2.018
		c-13.151-0.78-21.811,1.349-35.034,0.091c-13.122-1.248-27.178,0.054-40.368-2.136c-7.165-1.191-13.751-1.341-15.084-4.19
		c11.539,0.21,21.304,1.501,32.718,1.265c6.062-0.125,9.361-0.909,16.054-0.376c6.404,0.511,8.432,2.121,14.145,2.384
		c6.672,0.309,11.825-0.197,17.858-0.663c7.694-0.596,8.944-1.303,15.775-0.77c7.427,0.578,5.832,1.251,14.254,0.719
		c5.04-0.317,8.891-1.993,14.5-2.233c3.919-0.166,7.192,1.439,10.21,1.343c3.54-0.113,12.422,1.023,15.463,1.084
		c10.115,0.197,14.026-0.932,6.188,2.517C1141.022,112.695,1124.848,110.401,1115.841,110.667z"/>
	<path fill="#FFFFFF" d="M931.266,20.346c5.167-7.115,22.17-4.285,30.177-4.132c5.384,0.103,27.757-0.6,29.059,3.392
		c-7.136,0.056-21.822-0.412-31.188-0.639c-4.73-0.114-10.139-1.789-14.909-1.034c-4.634,0.733-8.964,1.728-12.78,2.412H931.266z"/>
	<path fill="#FFFFFF" d="M99.085,34.478c-14.791-0.006-44.639-4.581-54.748,1.599c4.819,2.553,8.408,0.769,14.246,0.991
		c3.974,0.152,7.801,0.574,11.172,0.639c10.034,0.188,19.596-0.044,29.332,0.163c16.846,0.359,36.665-1.17,53.477-1.679
		C147.14,33.259,110.484,34.483,99.085,34.478z"/>
	<path fill="#FFFFFF" d="M1080.689,48.572c-9.354,0.481-25.767-2.745-34.058,1.343c5.19-1.037,12.265,0.595,18.41,0.89
		c6.741,0.323,13.832,1.668,20.248,2.01c6.957,0.37,12.045-2.985,19.389-2.383c6.142,0.503,16.825,4.059,18.779-0.819
		C1110.078,45.128,1094.859,47.843,1080.689,48.572z"/>
	<path fill="#FFFFFF" d="M677.724,76.035c9.354-0.481,25.767,2.745,34.058-1.343c-5.19,1.037-12.265-0.595-18.41-0.89
		c-6.741-0.323-13.832-1.668-20.248-2.01c-6.957-0.37-12.045,2.985-19.389,2.383c-6.142-0.503-16.825-4.059-18.779,0.819
		C648.335,79.478,663.554,76.763,677.724,76.035z"/>
	<path fill="#FFFFFF" d="M39.982,91.197c-9.354,0.481-25.767-2.745-34.058,1.343c5.19-1.037,12.265,0.595,18.41,0.89
		c6.741,0.323,13.832,1.668,20.248,2.01c6.957,0.37,12.045-2.985,19.389-2.383c6.142,0.503,16.825,4.059,18.779-0.819
		C69.371,87.754,54.152,90.468,39.982,91.197z"/>
	<path fill="#FFFFFF" d="M386.818,17.536c-8.1,0.482-22.309-2.745-29.487,1.345c4.494-1.037,10.619,0.594,15.94,0.889
		c5.836,0.323,11.976,1.669,17.531,2.011c6.023,0.37,10.428-2.986,16.787-2.384c5.316,0.503,14.567,4.059,16.26-0.82
		C412.266,14.093,399.087,16.806,386.818,17.536z"/>
	<path fill="#FFFFFF" d="M197.342,23.051c9.343-0.576,25.825,2.488,34.023-1.685c-5.167,1.089-12.277-0.471-18.429-0.706
		c-6.748-0.256-13.868-1.531-20.292-1.808c-6.964-0.302-11.976,3.104-19.332,2.577c-6.151-0.442-16.915-3.891-18.759,1.006
		C168.033,26.786,183.19,23.922,197.342,23.051z"/>
</g>
</svg>
