<?xml version="1.0" encoding="utf-8"?>
<!-- Generator: Adobe Illustrator 17.0.0, SVG Export Plug-In . SVG Version: 6.00 Build 0)  -->
<!DOCTYPE svg PUBLIC "-//W3C//DTD SVG 1.1//EN" "http://www.w3.org/Graphics/SVG/1.1/DTD/svg11.dtd">
<svg version="1.1" id="圖層_1" xmlns="http://www.w3.org/2000/svg" xmlns:xlink="http://www.w3.org/1999/xlink" x="0px" y="0px"
	 width="305px" height="380px" viewBox="0 0 305 380" enable-background="new 0 0 305 380" xml:space="preserve">
<path fill="#568A4C" d="M276.617,97.05c7.631,13.003,22.757,23.346,26.274,38.943c-4.886,1.171-10.941,1.761-15.891,2.005
	c-1.055-19.193-24.313-30.037-36.763-40.947c4.752-2.978,10.918-3.685,16.38-5.001"/>
<path fill="#568A4C" d="M262.617,106.05c12.946,9.026,29.454,29.318,31.284,45.617c-6.609,2.094-32.284,6.751-32.284,6.751
	s-3.777-14.723-7.666-19.709c-3.572-4.579-8.314-9.414-12.619-13.274c3.915,12.037,6.559,24.428,6.234,37.239
	c-13.145,1.027-25.643,5.363-38.892,4.984c-3.278-11.006-4.417-24.965-12.741-33.499c0.648,8.659,8.016,33.224,8.016,33.224
	s-32.699,6.21-40.666,6.675c-6.932,0.406-11.146-3.369-18.25-5.609c-6.564-2.07-14.251-2.986-21.101-3.658
	c-19.537-1.915-39.474,2.177-58.581,5.213c-4.117-15.252,13.868-30.07,23.606-38.637c10.146-8.926,24.424-10.305,36.482-16.31
	c17.805-8.867,36.122-12.818,55.117-18.357c19.751-5.76,41.555-6.826,61.809-4.309c8.747,1.087,10.179,3.273,15.65,9.325
	c0.869,0.961,2.612,2.22,3.601,3"/>
<path fill="#2B6834" d="M230.617,42.05c4.981,8.552,15.89,16.27,17.926,26.082c1.099,5.295,0.042,4.837-5.593,6.927
	c-3.715,1.378-7.545,2.481-11.333,3.847c-5.183-6.55-10.433-12.79-16.742-18.272c-7.316-6.355-20.275-12.334-24.473-20.9
	c7.152-7.066,25.646-1.567,34.882-2.351"/>
<path fill="#2B6834" d="M188.284,38.383c15.695,11.948,30.547,32.313,40.632,48.601c-8.171,2.224-17.027-0.395-25.541,1.309
	c-13.483,2.697-25.922,7.59-38.507,12.757c-13.219,5.428-26.89,6.661-40.491,10.658c-13.784,4.051-23.962,10.576-36.352,17.675
	c-7.633,4.374-15.302,10.821-23.741,13.259c-7.94,2.294-11.681,2.862-15.491-4.667c-4.242-8.382-8.176-18.092-9.5-27.592
	c-2.125-15.248,2.615-23.78,13.963-33.719c15.272-13.376,29.066-20.528,47.68-27.867c17.191-6.778,33.498-13.93,52.021-16.356
	c13.064-1.711,28.158-1.248,40.327,2.942"/>
<path fill="#49954F" d="M36.851,72.298c9.412-11.991,20.081-24.596,31.488-34.26c16.165-13.695,40.631-23.732,60.973-30.112
	c33.437-10.488,76.717-4.468,105.124,15.247c7.703,5.346,20.427,15.681,26.084,23.21c6.897,9.178,7.097,13.333-6.008,18.336
	c-14.741-11.888-28.504-16.876-43.911-19.17c9.377,1.273,26.741,16.712,31.271,24.373c-5.24,2.9-12.21,3.924-17.923,5.127
	c-8.979,1.892-5.012-0.118-13-5c-10.36-6.331-36.565-18.954-36.333-18.667c8,9.897,19.777,18.298,26.807,25.029
	c-9.985,3.525-20.408,6.064-30.519,8.45c-1.835-10.38-17.653-20.188-25.431-25.626c7.497,6.318,10.886,18.401,14.412,26.726
	c-6.663,1.298-15.429,4.121-20.96,7.898c-3.78-11.26-18.214-20.998-27.538-25.273c5.392,8.793,10.504,18.876,14.012,28.364
	c-8.479,4.359-16.494,9.118-24.962,13.547c-3.775-9.364-16.674-15.008-24.452-21.26c6.62,7.783,8.196,18.533,10.414,27.71
	c-20.783,11.102-5.403,2.94-19.569,10.499c-2.769-6.476-14.562-19.59-19.548-23.73c2.021,7.549,9.207,26.331,10.667,34
	c0.009-0.013-28.983,8.608-28.97,8.599c-2.048,1.538-16.823-1.609-18.928-3.41c-5.867-5.02-4.343-14.466-2.28-20.701
	C13.544,104.758,25.58,86.658,36.851,72.298z"/>
<path fill="#73B467" d="M37.849,139.514c10.807-7.29,15.87-9.974,26.901-17.132c22.101-14.343,52.261-28.309,77.812-34.928
	c34.129-8.842,74.245-18.485,109.513-13.39c13.932,2.013,29.549,5.52,40.499,15.351c8.057,7.234,15.708,20.565,2.477,27.086
	c-5.072-14.021-19.936-14.917-31.534-17.861c18.508,6.519,32.128,27.86,41.484,43.909c-3.197,3.424-15.427,1.867-19.05,4.178
	c-8.173-14.937-16.439-27.879-32.071-34.088c9.397,6.555,20.547,25.518,23.968,36.813c-8.923,2.12-20.666,0.492-29.23,3.946
	c-6.355-13.3-21.516-26.14-30.617-31.505c-0.04-0.294,0.099-0.258,0.417,0.109c8.705,9.243,15.164,23.263,17.983,34.948
	c-9.339-0.355-17.45,4.769-26.448,2.177c-5.428-11.435-12.884-28.838-22.669-35.076c6.392,6.123,7.871,31.756,10.617,39.924
	c-8.283,1.442-18.744,6.699-26.617,4.862c-2.995-10.993-9.372-28.673-17.333-36.237c5.743,7.923,6.488,27.601,8.924,36.79
	c-10.257,2.726-20.924,2.726-28.958,0.486c2.675-10.689-5.752-20.977-9.99-29.701c0.039,10.354-1.772,19.055-5.602,28.299
	c-7.041,0.364-11.229,0.195-17.323,0.039c2.726-9.483-0.235-21.64-3.064-30.523c-7.578,15.68-10.04,32.43-30.485,33.062
	c-12.718,0.393-38.766,3.915-49.516-4.49c-2.384-1.865-4.448-3.749-5.512-6.417C21.394,154.002,28.804,145.615,37.849,139.514z"/>
<path fill="#90C985" d="M174.45,84.05c32.332-8.439,86.473-12.587,114.376,7.124c5.25,3.71,8.352,5.942,7.162,13.198
	c-5.542-5.682-31.003-17.663-40.788-8.323c9.977,6.75,17.794,11.243,23.188,17.609c-0.944,1.467-3.504,4.173-4.94,5.229
	c-6.425-8.142-20.319-11.064-29.821-13.886c7.232,8.025,12.334,16.315,14.748,26.472c-3.424,2.326-12.174,4.639-12.174,4.639
	s-8.443-9.239-13.837-13.966c-6.585-5.772-15.904-8.465-22.984-12.41c6.259,6.887,9.521,14.313,10.287,22.862
	c-4.966,1.451-11.925,2.095-15.614,3.401c-1.695-11.526-15.733-21.064-25.554-25.924c6.202,13.474,5.636,21.657,9.452,31.724
	c-3.269,0.708-11.251,2.566-14.373,3.174c-0.169-0.179-0.345-0.352-0.528-0.516c-10.22-11.859-14.113-18.744-22.235-24.844
	c0.511,10.746,2.415,21.68,1.571,32.36c-4.349,0.79-8.957,0.558-13.36-0.001c-0.819-10.361-10.659-24.144-18.988-29.36
	c1.853,9.234-2.71,28.749-6.713,37.387c-2.109-0.321-5.68-1.221-7.797-2.05c3.264-9.87-2.922-23.593-7.466-31.849
	c2.378,4.322-13.733,18.645-16.709,20.842c-8.039,5.936-17.664,9.324-27.492,10.774c-3.851,0.568-22.515,3.426-24.284-1.519
	c-1.804-5.044,12.331-12.396,15.34-14.389C86.646,114.18,126.292,96.619,174.45,84.05z"/>
<path fill="#2B6834" d="M8.756,174.805c14.129,1.802,28.75,14.43,42.201,19.569c9.971,3.809,19.342,6.942,27.409,13.278
	c3.602,2.829,2.958,3.628,7.168,2.731c4.612-0.982,8.779-6.616,12.316-9.352c9.543-7.382,19.904-14.097,29.881-20.59
	c0.116-0.121,0.114-0.121-0.008,0c-8.06,12.081-16.68,26.61-28.471,35.624c14.698,10.484,22.379,11.972,32.03,14.992
	c9.391,2.938,30.169-16.128,37.285-23.974c-5.283,12.736-16.048,20.84-23.916,31.233c12.028,3.333,21.041,8.373,30.892,14.015
	c6.011-10.847,20.043-17.069,27.432-26.847c-1.738,10.295-8.045,27.249-15.916,34.657c5.518,3.696,11.681,7.09,16.892,11.067
	c4.567,3.485,6.184,10.531,11.352,8.092c4.934-2.33,11.247-13.305,15.055-17.519c2.875-3.183,6.804-8.872,10.859-10.698
	c-0.356,6.755-4.002,14.688-6.59,21.041c-1.641,4.026-7.43,11.353-7.601,15.326c-0.233,5.413,8.484,5.358,13.601,7.267
	c3.612,1.348,12.151,7.166,15.975,6.017c0.315-0.095,1.053-0.088,1.375-0.067c7.092-19.051,10.005-39.078-0.96-57.041
	c-11.233-18.404-28.608-31.493-47.066-42.975c-13.722-8.537-24.812-14.585-40.599-19.102c-10.432-2.984-19.879-7.134-30.409-9.158
	c-9.687-1.862-17.668-3.951-27.974-4.008c-13.2-0.072-26.096-0.05-39.1,1.917c-10.506,1.59-20.028,0.489-30.594,0.749
	c-11.58,0.285-23.005,2.88-34.657,2.667"/>
<path fill="#52A35F" d="M38.799,146.726c36.485-0.872,61.104,3.355,89.485,9.575c30.681,6.723,63.451,16.127,89.333,34.983
	c22.349,16.282,50.055,35.375,56.317,63.433c2.613,11.706,0.482,22.278-3.308,33.335c-1.288,3.757-3.097,11.66-6.01,13.257
	c-3.296,1.807-12.182-0.383-14.082-3.175c-0.292-0.428-7.163-5.427-7.583-5.75c0.981-2.767,12.039-46.173,12.275-38.291
	c-5.138,2.66-9.803,10.27-14.348,14.643c-4.077,3.922-9.417,7.711-12.251,12.356c-4.281-5.965-15.507-10.784-21.965-13.685
	c6.882-12.97,15.728-25.445,19.915-39.906c-11.749,6.331-18.213,20.468-30.941,25.184c-7.321-7.167-20.109-12.745-29.317-16.544
	c7.089-5.88,13.249-15.671,17.775-23.447c-9.974,0.897-19.77,14.561-28.809,18.008c-5.502,2.099-18.403-6.635-22.232-9.035
	c10.867-9.081,16.932-24.171,23.239-35.991c-0.006-0.254-0.001-0.248,0.018,0.019c-11.896,7.018-22.2,22.791-34.69,28.955
	c-11.363,5.607-22.418-8.263-33.282-12.668c2.938-9.628,16.942-19.198,22.579-27.362c-7.45,2.046-15.574,8.936-21.964,13.19
	c-8.121,5.407-7.979,7.869-17,2.825c-10.968-6.132-24.935-12.249-37.333-14.16c-8.757-1.349-28.648,2.336-33.416-7.018
	C-7.065,153.235,38.799,146.726,38.799,146.726z"/>
<path fill="#52A35F" d="M117.073,22.413c33.432-10.536,91.621-5.281,122.921,10.899c7.963,4.116,9.792,3.078,7.289,12.405
	c-8.866,8.43-45.364-11.043-48.268-11.091c3.496,8.54,12.788,17.138,19.883,22.791c-0.679,1.219-3.181,3.738-4.574,4.56
	c-11.886-4.042-27.708-11.259-48.797-16.827c5.002,10.146,9.78,21.062,17.968,28.424c-7.044,5.73-32.747-23.222-42.97-26.334
	c2.056,10.114,3.884,21.454,7.886,30.671c-8.25,7.083-14.094-6.196-20.476-9.776c-7.101-3.983-16.195-6.417-23.836-9.083
	c3.998,10.73,9.225,21.663,12.798,31.899c-4.042,1.211-8.085,2.403-11.571,4.061c-5.988-8.625-22.812-12.664-32.41-14.797
	c1.901,9.478,3.014,20.363,3.466,29.752c-3.389,1.259-6.168,3.087-9.005,5.084c-7.255-6.077-14.205-12.222-21.316-18.482
	c-2.685,9.754-3.025,21.409-1.651,31.371c-4.869,3.168-22.962,12.251-29.457,8.625c-18.025-10.066,26.223-55.416,31.982-61.734
	C66.46,53.405,88.738,31.343,117.073,22.413z"/>
<path fill="#73B467" d="M114.463,157.55c20.984,6.757,31.938,9.734,52.737,16.539c39.705,12.991,89.581,39.073,97.977,83.211
	c1.583,8.325,0.418,18.757-1.801,27.173c-1.895,0.015-5.845-0.434-7.849-0.973c1.478-12.137,4.121-21.546,1.923-33.45
	c-7.577,1.199-25.5,18.351-25.5,18.351l-15.375-8.426c0,0,16.408-25.828,15.385-38.16c-14.49,2.478-24.722,7.41-36.108,15.16
	c-4.538-2.736-9.683-4.151-14.725-6.4c7.427-5.771,10.289-17.153,13.41-25.559c-7.803-1.294-37.337,17.536-37.337,17.536
	l-14.25-7.25c0,0,15.888-22.786,16.424-32.674C148.453,184.556,120.2,210.3,120.2,210.3l-21-15c0,0,17.61-16.016,19.171-26.686
	c-14.852,3.915-29.723,13.3-45.03,8.834c-7.212-2.103-14.337-7.065-21.405-10.275c-12.418-5.639-25.215-4.796-38.94-5.201
	c5.529-10.868,20.091-12.848,31.455-11.923C44.45,150.05,93.502,150.8,114.463,157.55z"/>
<path fill="#C8E0A0" d="M78.95,125.05c12.158-11.012,34.357-15.689,49.611-22.514c17.007-7.609,31.91-13.483,50.155-17.109
	c19.65-3.905,56.705-10.416,74.557,1.248c-2.348,2.456-3.768,4.002-5.923,6.301c-11.011-0.202-21.468-4.826-32.638-4.327
	c7.754,2.636,17.322,9.379,21.698,15.902c-0.594,0.977-3.27,3.866-4.045,4.424c-12.648-0.789-25.821-8.816-38.375-10.715
	c5.905,3.141,9.288,9.528,12.299,14.676c-10.521,5.207-26.639-7.117-37.4-11.585c2.307,6.21,2.589,12.736,5.038,18.599
	c-4.115,0.741-8.102,2.353-11.476,4.659c-3.941-5.939-10.558-10.472-16.374-14.557c-1.63,6.026-2.687,12.255-3.713,18.421
	c-2.086,0.228-6.235-0.118-8.341-0.61c-1.439-4.716-5.032-8.553-7.634-12.726c-15.993,1.984-30.982,6.639-46.439,9.913H78.95z"/>
<path fill="#73B467" d="M240.45,37.55c-5.545-13.281-28.793-19.908-41-24.583c-17.993-6.893-38.327-6.381-57.498-2.792
	C118.741,14.52,96.601,22.801,78.95,38.537c-13.295,11.852-17.185,24.094-26.5,36.987c-1.794,2.483-4.246,5.027-6.327,7.048
	c12.22-2.963,24.655-14.176,37.049-12.132c4.978,0.821,13.266,6.699,16.9-1.242c1.973-4.31-4.165-12.424-6.57-16.536
	c8.132-3.35,14.801-1.041,22.935,0.01c9.833,1.27,9.954-1.139,18.935-5.747c-2.385-4.134-5.012-8.679-7.397-12.277
	c10.103-0.315,19.493,1.636,29.474,2.389c3.419,0.258,11.673,2.69,14.512,1.698c2.795-0.978,7.45-7.46,9.448-9.063
	c-6.503-3.188-12.354-7.124-19.283-9.649c28.344-0.273,53.955,2.529,78.823,14.526L240.45,37.55z"/>
<path fill="#90C985" d="M232.976,208.661c7.398,6.161,14.065,12.82,16.851,22.012c3.294,10.865-2.131,11.081-6.451,19.303
	c-3.439-0.109-6.687-1.089-9.865-2.488c3.22-8.688,5.226-18.417,3.365-27.865c-13.355-2.48-24.479,3.155-35.436,9.213
	c-1.516-3.679-4.523-5.486-8.45-4.887c7.062-4.855,10.432-14.903,11.386-22.775c-3.802-2.705-44.992,14.891-44.992,14.891
	l-6.92-6.683c0,0,7.073-23.425,6.92-31.013c-7.98-3.411-40.434,25.078-40.434,25.078s-5.818-11.931-9.996-10.523
	c2.502-5.097,14.683-22.976,14.02-28.179c-8.204-3.799-18.053-4.568-27.006-6.549c3.46,0.766,20.006-5.255,65.453,13.879
	C186.093,182.465,212.279,191.423,232.976,208.661z"/>
<path fill="#C8E0A0" d="M66.016,150.912c53.203,3.453,97.442,17.32,107.925,23.626c9.205,5.537,18.969,10.072,28.373,15.136
	c14.054,7.569,23.846,17.993,36.599,26.263c-10.003,0.853-19.597,3.93-29.388,4.537c-1.706-1.215-2.326-2.308-5.034-3.536
	c3.74-3.63,6.124-12.471,5.384-18.313c-5.635-1.058-12.524-0.399-18.424,0.036c-5.296,0.39-17.513,4.924-17.513,4.924
	s-13.836-8.405-13.147-6.905c0.69,1.5,0.567-19.608,0.086-23.555c-7.624-1.155-27.019,14.924-27.019,14.924l-10.417-2.313
	c0,0,0.242-12.044,1.843-15.354L66.016,150.912z"/>
<path fill="#C8E0A0" d="M124.439,21.076c15.923-4.875,36.729-12.893,52.972-7.137c-9.699,1.029-20.404,3.594-29.771,6.626
	c3.992,0.543,7.515,3.23,10.711,5.583c-0.126,0.132,0.317,0.835,0.412,0.929c-8.63,1.603-11.665,2.387-20.423,1.462
	c-10.033-1.059-12.639,0.885-19.726,7.9c3.089,3.649,6.064,7.428,8.676,11.51c-3.167,1.797-6.309,3.737-9.339,5.665
	c-4.21-3.465-16.79-10.149-21.498-8.562c-8.646,2.916-6.738,16.398-5.578,22.922c-4.547,0.212-8.881,2.515-12.436,5.375
	c-7.888-9.427-20.213-4.325-28.398,1.362c-0.292,0.421,0.208-0.197,0.267-0.241c10.332-7.667,19.305-20.004,29.568-28.564
	C92.981,34.974,108.067,26.088,124.439,21.076z"/>
<path fill="#49954F" d="M157.617,348.006c8.132,10.842,13.271,19.168,19.985,29.745c0.146,0.002,0.286,0.012,0.433,0.014
	c-2.286-20.105-1.281-39.417-18.367-52.908c5.21,1.47,9.871,3.838,15.182,4.759c-1.157-24.599-4.185-40.101-32.364-46.601
	c10.442-2.019,25.261-1.517,35.05-6.116c-14.313-26.441-25.823-30.075-55.682-29.814c10.332-2.995,22.438-3.774,32.379-8.701
	c-15.085-13.844-20.374-32.734-51.439-54.772c-15.44-10.954-36.777-24.561-69.317-23.712c18.991,32.915,41.812,62.296,65.475,94.15
	C121.95,284.05,133.617,318.006,157.617,348.006z"/>
<path fill="#5BAA5F" d="M157.617,348.006c-24-30-35.666-63.956-58.666-93.956c-23.663-31.854-46.484-61.235-65.475-94.15
	c-2.443-0.551-3.858-0.849-3.858-0.849c-37.306,5.488-16.59,70.747,0.699,87.931c10.579-6.766,20.864-13.029,32.565-17.163
	c-4.094,7.466-23.235,19.083-26.431,27.223c-3.915,9.971,6.417,29.181,14,38.984c7.342-4.563,11.726-27.217,21.765-23.493
	c-7.481,12.528-17.16,23.769-12.099,37.871c5.27,14.681,19.906,20.477,28.686,32.597c4.663-7.873,7.254-14.967,16.717-17.847
	c1.418,9.632-1.489,18.822,4.135,26.381c4.358,5.857,14.21,9.098,20.628,12.312c16.02,8.024,28.956,13.56,47.32,13.905
	C170.888,367.174,165.749,358.848,157.617,348.006z"/>
<path fill="#90C985" d="M49.076,282.473c8.977-7.31,17.739-16.982,29.773-17.885c-0.147,11.611-6.415,29.445-12.823,39.076
	c2.601,5.282,7.534,9.249,11.414,13.512c4.943,5.431,6.652,9.814,10.11,16.196c5.256-6.665,15.785-14.544,23.9-16.631
	c3.353,12.677,0.641,26.835,11,35.421c10.107,8.377,34.748,17.239,46.5,20.889c-4.686-4.91-12.439-18.499-16.486-25.044
	c-5.661-9.153-12.365-20.601-18.607-28.963c-11.5-15.409-22.818-27.98-31.065-45.849c-7.106-15.397-22.966-29.462-32.205-43.281
	c-8.479-12.681-13.43-29.985-29.139-33.751c-7.11-1.705-15.248-3.343-22.947-2.434c2.024,11.232,6.901,21.511,10.536,31.743
	c1.63,4.589,51.23-11.506,32.441,15.426c-5.606,8.036-22.68,23.654-22.68,23.654S43.35,274.217,49.076,282.473z"/>
<path fill="#5BAA5F" d="M77.95,179.173c9.426,4.826,17.735,11.068,26.389,17.14c8.495,5.96,18.68,11.142,24.722,19.626
	c7.051,9.899,1.687,13.424-7.65,18.974c-4.276,2.541-9.415,5.925-12.883,9.502c6.531,6.968,16.596,7.041,24.923,10.233
	c6.62,2.538,19.078,6.583,23.56,11.928c-2.454,3.415-7.769,3.21-11.534,4.573c-4.096,1.483-7.706,4.065-11.486,5.875
	c5.041,6.096,12.865,9.97,18.958,15.415c1.786,1.596,6.355,4.865,6.902,7.211c1.016,4.358-1.075,3.86-4.4,6.026
	c-8.559,5.576-4.643,8.06-1.099,15.888c2.68,5.918,6.654,12.62,8.025,18.909c-16.894-16.217-27.717-38.923-39.067-59.311
	c-10.927-19.629-26.185-35.629-38.859-54.109c-7.234-10.548-15.742-20.802-23.487-30.987c-3.609-4.745-8.754-9.106-11.513-13.977
	c-2.08-3.674-2.782-9.167-4-11.537C45.45,170.55,69.769,174.985,77.95,179.173z"/>
<path fill="#90C985" d="M68.45,190.55c4.062,2.747,7.888,10.311,11.085,14.611c4.742,6.377,9.298,12.785,13.792,19.278
	c5.845,8.445,11.912,17.407,16.499,26.611c4.567,9.164,10.327,17.616,16.261,26.01c4.345,6.147,7.666,13.123,11.752,19.601
	c3.245,5.144,5.772,11.887,10.159,16.188c-4.796-6.619-0.121-11.015,4.9-14.162c-8.032-5.409-11.923-14.386-17.995-21.139
	c3.251-4.884,12.683-3.335,17.971-3.574c1.419-14.722-35.821-18.24-41.536-30.924c-5.368-11.913,11.128-12.005,9.748-18.137
	c-1.3-5.78-17.178-14.91-21.663-18.737c-4.587-3.914-26.65-23.804-31.974-17.126L68.45,190.55z"/>
<path fill="#C8E0A0" d="M103.45,249.05c14.573,22.252,30.164,44.106,44.274,66.073c-2.412-5.39,0.896-11.727,5.539-14.197
	c-5.946-4.069-11.557-11.176-15.811-16.765c-1.68-2.207-5.175-6.68-5.502-9.585c-0.428-3.804,1.875-5.068,3.424-8.428
	c-8.811-10.962-24.378-15.293-34.424-25.098L103.45,249.05z"/>
<path fill="#C8E0A0" d="M66.95,193.05c11.748,2.317,31.977,12.709,38.18,24.667c4.101,7.904-1.314,14.184,0.652,21.836
	c1.809,7.04,8.239,12.506,10.918,18.878c-14.127-2.825-19.953-20.392-26.919-31.415c-5.078-8.035-15.66-30.51-24.832-32.632
	L66.95,193.05z"/>
<path fill="#C8E0A0" d="M70.45,231.55c1.586,0.779,2.285,11.445,2.375,13.262c0.214,4.302,0,0-2.861,2.361
	c-2.861,2.361-7.248,6.045-2.526,8.888c3.486,2.098,8.176-1.908,12.01,0.601c9.162,5.997,1.078,17.064,2.004,24.887
	c0.423,3.575,2.468,7.843,4.85,10.611c5.221,6.067,4.011,2.295,8.523,0.265c15.973-7.185,22.023,26.076,29.014,34.259
	c2.43,2.845,5.941,5.34,9.126,7.241c3.998,2.387,7.51,5.274,7.11-0.376c-0.539-7.626-11.94-21.119-16.612-27.121
	c-9.117-11.712-16.079-26.97-24.202-39.739C91.587,254.627,78.95,234.623,70.45,231.55L70.45,231.55z"/>
</svg>
