<?xml version="1.0" encoding="utf-8"?>
<!-- Generator: Adobe Illustrator 17.0.0, SVG Export Plug-In . SVG Version: 6.00 Build 0)  -->
<!DOCTYPE svg PUBLIC "-//W3C//DTD SVG 1.1//EN" "http://www.w3.org/Graphics/SVG/1.1/DTD/svg11.dtd">
<svg version="1.1" id="圖層_1" xmlns="http://www.w3.org/2000/svg" xmlns:xlink="http://www.w3.org/1999/xlink" x="0px" y="0px"
	 width="405px" height="665px" viewBox="0 0 405 665" enable-background="new 0 0 405 665" xml:space="preserve">
<path fill="#568A4C" d="M394.747,40.976c8.874,4.97,7.384,9.545,16.906,15.725c-5.36,5.847-16.129,17.94-19.618,25.8
	c-16.155-6.865-18.659-18.678-35.69-24.27c6.164,14.19,18.31,25.91,26.15,38.745c-11.628,8.042-16.825,16.714-24.432,27.751
	c-12.905-18.233-38.481-21.026-49.983-41.1c-12.317-21.497-2.865-24.373,19.982-31.466c19.557-6.071,37.044-12.415,57.304-11.852
	c1.559,0.043,3.157,0.068,4.714,0"/>
<path fill="#73B467" d="M270.082,75.122c7.35-27.184,32.943-43.569,59.664-51.479c28.789-8.522,71.59-4.97,91.5,17
	c-5.768,8.894-18.385,13.993-22.581,23.468c-13.27-10.018-32.184-16.293-47.833-18.646c-0.241-0.263-0.241-0.276,0-0.037
	c14.274,6.733,26.815,16.146,36.548,28.035c-9.021,5.146-13.47,14.69-20.601,22.114c-12.864-8.24-22.19-16.838-37.132-20.534
	c8.338,10.2,16.639,20.818,23.533,31.22c-31.233,22.38-44.274,59.915-45.899,75.845c1.147-11.247-36.708-27.563-40.865-43.246
	C261.265,119.428,264.897,94.3,270.082,75.122z"/>
<path fill="#90C985" d="M284.08,66.309c23.985-38.833,73.508-52.144,115.084-33.365c-0.033,2.862-1.29,7.982-2.517,10.452
	c-18.338-0.482-39.436-9.664-57.7-3.121c7.903,7.719,18.723,14.379,26.415,22.038c-10.322,10.341-3.971,15.947-21.282,11.996
	c-8.734-1.994-18.949-7.439-27.932-7.049c4.15,9.249,10.307,24.126,17.559,30.987c-15.669,12.425-25.274,18.139-29.599,35.764
	c-9.709-9.181-8.602-18.365-15.527-30.222c-3.071-5.259-7.585-13.328-8.533-19.479c-1.349-8.753,2.731-13.482,4.032-22"/>
<path fill="#2B6834" d="M500.747,158.309c-0.27,10.716,1.56,20.538,1.365,31.134c-10.003-8.203-24.834-10.819-37.934-10.568
	c-4.352-13.811-7.914-31.359-15.982-43.145c2.384,14.135,4.054,29.554,4.435,43.825c-6.46-2.896-12.786-5.067-20.452-5.979
	c-2.236-15.207-10.082-23.912-16.632-35.865c-0.219,12.092,0.406,24.33-0.101,36.362c-6.155-7.927-16.149-5.586-24.583-4.68
	c-4.554-15.807-15.58-20.098-27.381-28.7c3.566,11.122,6.142,24.57,11.147,34.495c0.461,0.205-0.153-0.029-0.321-0.38
	c-12.581-3.02-46.428,33.029-50.91,7.498c-2.207-12.571,14.483-33.225,22.682-40.813c15.697-14.528,34.934-26.383,56.15-30.37
	c32.622-6.13,91.399,11.123,104.517,45.185"/>
<path fill="#49954F" d="M294.079,170.976c6.617-35.405,44.163-66.775,75.334-80.986c26.745-12.194,62.939-14.512,90.518-4.214
	c19.831,7.405,40.197,19.365,50.998,37.867c10.52,18.02,10.156,38.977,11.717,59.267c-6.231-4.275-15.843-11.237-27.898-12.333
	c-3.333-7.988-11.066-17.323-20.218-28.145c5.307,9.328,7.446,17.612,8.884,28.145c-14.546-2.129-15.333-4.331-29.833-6.934
	c-5.422-8.686-10.814-17.231-17.385-24.616c1.869,9.442,1.913,14.099,2.66,23.561c-5.525-1.903-19.876-5.571-25.775-4.945
	c-1.824-15.286-11.441-15.581-20.032-25.949c4.66,9.049,6.686,18.239,10.299,27.147c-13.142-1.475-17.6,0.523-34.267,7.405
	c-10.006-3.735-18.897-17.04-28.135-21.983c9.573,4.667,14.949,16.264,19.049,25.265c-25.247,15.45-25.056,31.213-45.095,40.981
	c-29.809,14.53-43.777-11.853-30.82-36.865L294.079,170.976z"/>
<path fill="#73B467" d="M456.746,98.129c24.959,6.703,51.81,30.867,49.925,58.938c-2.112,0.641-5.89,1.308-7.949,1.378
	c-6.245-11.513-18.593-21.785-29.411-29.139c1.94,6.467,0.789,16.029,0.789,16.029l-15.998,1.629c0,0-22.733-25.262-27.689-28.987
	c0.44,11.225,2.696,12.942,2.014,23.274c-7.7-0.626-13.454,3.393-13.454,3.393s-19.896-19.943-27.625-23.45
	c-0.666,8.727,0.314,19.266,1.334,27.851c-7.136,3.385-14.956,4.831-22.338,8.048c-6.145-8.895-18.404-12.251-26.133-18.758
	c1.548,9.653,3.168,19.729,3.849,29.345c-9.178,0.984-11.685,11.854-19.46,8.589c-8.758-3.678-12.87-14.339-21.209-19.072
	C332.06,105.336,400.762,83.094,456.746,98.129z"/>
<path fill="#568A4C" d="M502.08,245.643c7.813,10.844,3.98,30.024,1.235,41.897c-7.755-3.195-16.906-6.825-25.799-7.997
	c3.297-14.354-1.555-31.252-5.484-45.029c2.325,12.704-1.288,27.579-4.603,39.525c-9.427-6.419-17.118-4.109-20.166-13.88
	c-3.574-11.457-3.433-23.279-8.366-34.463c-0.533,13.089-1.439,24.94-5.152,37.375c-3.554-6.315-13.493-5.686-20.226-7.544
	c2.685-12.807-5.104-23.829-4.738-36.314c-5.719,9.089-10.107,19.187-15.354,28.229c-8.075-10.267-24.483-4.418-33.865-13.98
	c-8.429-8.591-3.063-20.546,7.186-27.835c27.387-19.48,71.135,0.61,98.666,11.853c15.209,6.211,30.408,17.413,38.666,28.831"/>
<g>
	<path fill="#B89263" d="M248.747,258.942c-2.499,22.508-5.685,44.957-3.966,68.034c3.336,44.788,12.754,103.23,27.294,145.814
		c8.559,25.063,22.993,46.902,34.537,71.52c12.255,26.13,32.867,44.649,50.725,66.667c17.086,21.066,31.018,38.835,53.932,53.922
		c9.537,6.28,14.931-57.994,9.978-69.922c-4.828-11.626-14.25-2.944-71.772-78c-34.671-45.239-56.471-104.642-66.772-161.251
		c-4.812-26.435-5.753-105.148,10.726-153.416c0.514-1.505,1.907-3.232,2.717-4.663c2.806-4.956-16.801-8.263-18.991-8.011
		c-8.106,0.931-11.847,4.96-15.755,11.226C251.54,216.663,250.74,240.993,248.747,258.942z"/>
	<path fill="#D7AD7D" d="M252.897,297.388c6.683,2.899,12.706,1.198,17.896-3.349c1.743,12.32-9.918,1.447-14.714,11.538
		c-4.872,10.251-4.169,37.749-1.186,47.918c5.313-1.281,11.116-0.127,15.9-2.725c6.286,7.206-8.58,11.457-13.436,16.348
		c-3.694,3.722-0.986,10.015-0.439,15.351c6.397-0.612,12.83-3.088,17.874-6.698c0.885,6.291-10.98,10.465-14.889,14.723
		c-3.016,3.285,1.719,6.387,1.992,11.998c7.151,0.801,14.403-0.147,20.678-1.671c0.538,9.465-14.779,4.934-15.878,16.156
		c-0.841,8.592,12.163,35.966,14.383,43.666c7.575,2.902,22.381-16.288,21.737-3.004c-0.28,5.776-11.84,8.141-17.07,12.005
		c-3.29,2.432,5.645,19.123,6.333,25c17.078-6.666,23.824-3.667,15,1.333c-3.594,2.036-11.701,4.148-9.389,11.721
		c8.716,28.54,19.191,25.88,37.777,12.119c15.442,13.149-26.084,31.014-0.723,43.923c5.216-4.366,18.683-26.273,23.801-13.874
		c4.178,10.123-21.438,19.908-14.876,31.806c8.944,16.214,16.98-17.083,22.298-17.799c10.69-1.44-5.45,29.095-4.049,35.597
		c16.073,0.672,8.786-18.94,19.904-23.675c6.021,12.105-17.997,42.121,5.748,41.675c1.684-4.898,4.472-16.666,10.15-18.068
		c13.738-3.392,5.639,9.639,5.997,16.017c0.766,13.625-8.02,17.317,8.693,24.56c-1.628-15.389,1.595-18.485,6.48-34.18
		c9.933,5.791-0.44,27.464-3.814,38.513c-6.082,19.93-5.46,18.823-19.608,4.607c-18.253-18.341-38.848-40.217-53.664-61.606
		c-16.176-23.353-34.136-42.608-45.395-69c-12.01-28.155-26.308-63.608-34.444-94.887c-7.54-28.985-15.382-63.794-12.889-95.447
		C251.464,297.706,255.143,284.038,252.897,297.388z"/>
	<path fill="#D7AD7D" d="M254.08,292.311c4.943,2.111,26.705-7.674,19.259,5.666c-2.992,5.361-16.635,8.01-22.208,7.55
		c0.056-3.798,0.366-9.834,1.949-13.216"/>
	<path fill="#D7AD7D" d="M264.005,281.31c3.676-0.263,7.403,0.569,11.358,0.284c-0.149-6.259-9.619-2.999-13.614-2.617
		c-3.858,0.368-8.257,0.553-11.486,2.689C252.913,285.354,260.011,281.595,264.005,281.31z"/>
	<path fill="#D7AD7D" d="M252.414,274.977c2.951-0.309,13.476-1.183,14.283-4.95c-3.672-1.879-8.111-0.084-12.232,0.233
		c0.208-1.226-0.173-2.766,0.225-3.906c-3.319,1.484-1.931,5.296-1.942,8.623H252.414z"/>
	<path fill="#D7AD7D" d="M259.905,247.096c-0.133,0.062-1.656,11.22-4.216,13.193C253.477,256.272,255.647,249.079,259.905,247.096z
		"/>
	<path fill="#D7AD7D" d="M276.146,419.543c3.754,0.334,11.998-5.778,14.646-8.372C295.015,407.033,256.654,417.809,276.146,419.543z
		"/>
	<path fill="#D7AD7D" d="M289.699,473.644c5.296,5.869,19.103,0.116,18.796-7.336C305.909,465.884,289.127,473.01,289.699,473.644z"
		/>
	<path fill="#D7AD7D" d="M301.833,507.056c7.121,1.814,18.815-5.974,23.329-10.779c0.813-0.864-11.703,1.205-13.28,1.892
		C307.816,499.939,301.703,501.468,301.833,507.056z"/>
	<path fill="#D7AD7D" d="M350.746,527.893c-1.912,0.412-11.708,7.76-5,7.769c2.382,0.003,9.722-5.683,9.206-7.482
		c-1.56-0.791-3.533-1.079-5.206-0.537"/>
	<path fill="#D7AD7D" d="M296.246,424.143c-2.372-0.324-13.077,3.414-8.763,6.816c1.916,1.512,9.89-3.403,10.787-5.066
		c-0.681-1.02-1.532-1.561-2.774-1.75"/>
	<path fill="#D7AD7D" d="M271.746,332.893c-2.093,0.172-8.369,0.426-9.519,2.544c-2.322,4.278,3.349,4.317,6.025,4.212
		c2.531-0.1,7.162-0.558,7.926-3.269c0.937-3.328-2.867-4.086-5.682-3.237"/>
	<path fill="#FAD3AD" d="M257.246,295.643c2.057-1.11,9.115-3.727,9.035,0.475c-0.084,4.462-7,3.61-9.049,5.986
		c-4.664,5.412-3.654,15.819-3.986,22.539c-0.358,7.248-3.504,18.755-1.5,25.5c1.411,4.752,5.885,4.268,6.646,6.864
		c0.736,2.507,0.974,8.374-3.122,9.16C245.779,367.989,253.276,303.14,257.246,295.643"/>
	<path fill="#FAD3AD" d="M251.746,357.643c0.235,5.266-0.689,19.237,2.891,22.998c4.966,5.219,12.249-1.076,18.571-2.963
		c-3.328,5.793-11.473,11.292-17.875,13.399c-0.861-10.607-2.915-21.857-4.587-32.435"/>
	<path fill="#FAD3AD" d="M261.246,408.643c5.374-2.092,13.232-7.396,18.896-6.398c-1.192,5.137-14.292,8.023-19.322,9.858
		c-0.11-0.976,0.058-1.988-0.074-2.96L261.246,408.643z"/>
	<path fill="#FAD3AD" d="M267.746,428.643c1.473-2.801,1.473-2.801,2.698,2.602c0.949,4.184,2.03,21.926,4.19,25.498
		c5.643,9.331,9.332,6.464,18.734,1.089c0.777,1.309,1.08,2.298,1.313,3.849c-5.282,2.755-10.409,5.021-16.299,5.388
		C268.741,458.064,267.746,428.643,267.746,428.643z"/>
	<path fill="#FAD3AD" d="M257.514,261.596c0.039,0.104,0.043,2.471,0.002,2.579c6.587,1.271,15.317,1.416,20.728-1.777
		C275.617,259.662,257.769,262.288,257.514,261.596z"/>
	<path fill="#FAD3AD" d="M286.672,487.312c0.942,2.496,2.029,7.953,4.335,9.071c2.96,1.436,6.642-1.795,9.974-1.097
		c-1.475,2.167-3.461,3.859-5.843,4.748c1.415,8.751,3.837,17.798,8.258,25.609c6.783,11.983,9.919,9.016,21.617,8.05
		c3.712,5.498-3.061,6.154-6.892,7.323c2.074,5.448,9.59,25.712,16.209,27.635c6.02,1.749,7.25-8.904,5.992,2.659
		c-0.635,5.837,1.279,9.666,4.508,14.918c1.884,3.066,3.917,6.139,6.574,8.455c1.288-3.381,3.484-9.778,7.609-10.666
		c3.367,5.177-7.036,16.357,2.482,21.877c6.703,3.888,9.797-10.611,14.176-13.199c1.844,4.598-2.727,10.483-1.934,15.931
		c0.732,5.035,2.18,13.623,7.749,15.025c6.777,1.706,7.362-8.7,12.342-5.333c3.52,2.38,1.026,5.518,0.86,8.741
		c-0.252,4.881-0.751,4.034,2.325,8.267c3.343,4.597,8.405,8.19,9.398,13.984c1.847,10.77-6.071,3.392-9.666-0.993
		c-4.434-5.406-8.264-11.579-13.667-15.933c-5.877-4.734-12.342-8.671-17.407-14.408c-16.748-18.971-31.513-39.449-46.093-60.018
		c-3.773-5.322-3.442-5.112-6.064-10.982c-2.315-5.184-5.683-9.143-9.513-13.434c-5.716-6.403-9.359-16.119-11.633-24.793
		c-1.404-5.358-6.376-7.082-6.622-12.773c-0.276-6.396-2.732-8.741-4.534-14.817c-1.542-5.19-4.148-12.729-3.881-18.226
		C283.32,468.389,283.893,479.954,286.672,487.312z"/>
</g>
<path fill="#2B6834" d="M90.746,94.643c-23.013,5.586-40.931,45.101-45.846,65.801c21.334,9.137,29.664,9.824,40.346,13.481
	c12.001-10.944,30.225-46.265,45.452-51.076c-15.644,14.879-19.753,33.231-28.824,49.62c14.599,3.792,27.456,2.849,41.705,7.046
	c7.783-14.148,21.402-29.856,36.02-34.518c-0.602,10.961-3.087,22.413-1.456,33.472c15.876,5.291,37.778,6.684,54.679,8.02
	c5.48-16.836,14.44-23.872,3.948-38.575c-8.637-12.103-29.164-19.928-41.828-25.997c-14.358-6.881-30.101-11.293-44.172-18
	c-17.64-8.408-29.811-8.754-48.023-12.274"/>
<path fill="#2B6834" d="M152.745,15.641c-19.104,0.441-41.005,22.812-49.767,38.68c8.12,5.023,17.854,6.537,25.734,11.417
	c14.742-8.704,34.82-18.917,52.513-18.147c-13.364,5.83-24.527,13.887-35.541,21.349c16.59,8.024,42.268,14.66,50.543,32.617
	c12.655-12.244,27.727-15.753,43.764-19.847c-6.925,10.561-16.337,27.369-25.192,35.129c17.985-2.182,38.882,15.065,55.814,20.584
	c6.35-14.393,11.02-47.606,3.333-63.115c-6.186-12.48-29.159-20.946-41.35-26.516c-14.985-6.848-31.284-11.347-45.884-19.316
	c-10.328-5.638-19.024-14.862-30.634-17.501"/>
<path fill="#49954F" d="M256.713,45.628c-9.604-7.256-20.171-13.888-30.798-19.817c-19.226-10.728-38.436-19.561-60.501-22.167
	c-26.72-3.156-58.048,10.127-73.986,31.836c5.054,3.443,11.102,7.044,16.635,10.578c15.938-12.365,31.22-17.086,51.446-17.081
	c-12.694,4.763-26.119,9.889-32.693,23.902c6.544,1.168,12.405,6.392,18.581,7.449c7.898,1.352,9.552-0.955,17.318-4.865
	c11.597-5.839,26.133-7.88,39.327-7.004c-12.279,5.788-29.587,13.489-37.062,25.72c10.838,2.395,21.797,9.229,30.251,15.885
	c9.118-5.284,16.909-11.807,26.632-13.52c-6.902,7.695-10.078,17.175-16.529,25.1c12.824,3.401,21.446,14.162,31.414,22.928
	c1.946,1.711,24.683-27.813,26.772-26.324c4.114,3.352-12.08,38.355-7.326,42.457c26.786,23.117,60.202,54.471,60.63,52.522
	C334.747,111.643,266.213,52.805,256.713,45.628z"/>
<path fill="#52A35F" d="M228.079,107.976c-20.815-13.419-45.056-19.702-69.348-27.208c-47.246-14.599-93.442-8.468-126.35,28.974
	c-5.72,6.507-14.444,15.533-16.568,23.817c6.734,2.656,13.86,4.921,19.911,9.191c15.601-15.708,29.553-34.484,51.87-41.153
	c-12.471,12.325-24.682,24.817-30.559,41.581c12.341-0.107,19.894,3.597,30.735,8.299c1.966-14.695,25.352-26.332,37.909-30.809
	c-4.535,11.491-12.167,21.858-16.896,32.873c11.029,0.87,19.634,7.863,28.472,2.104c9.802-6.387,17.423-17.059,28.426-22.354
	c-1.961,9.705-4.067,19.817-7.747,28.888c11.073,2.578,23.218,5.516,34.812,7.072c9.201,1.235,9.07,1.088,14.387-7.107
	c3.278-5.052,6.236-10.005,10.15-13.813c-0.14,10.648,2.014,23.075,0.038,33.236c29.611,3.837,72.988,23.105,102.81,21.742
	c7.544-0.346-10.744-30.953-12.119-32.733c-6.715-8.695-35.346-32.082-42.599-39.267
	C256.706,122.685,238.302,114.567,228.079,107.976z"/>
<path fill="#73B467" d="M392.177,179.183c18.185-0.511,35.804,4.765,53.923,9.292c35.24,8.805,61.931,30.233,68.359,66.278
	c1.117,6.265,3.165,15.256,1.349,21.268c-5.243-0.892-10.582-2.181-16.008-1.801c-3.825-15.805-5.446-32.91-16.931-45.592
	c3.147,12.488,6.064,24.983,3.378,37.752c-7.714-4.764-13.868-5.309-22.468-6.48c4.356-9.981-5.909-26.189-12.096-33.781
	c-1.522,8.945-0.674,18.363-1.893,27.083c-7.26-3.65-15.327-2.529-18.688-9.512c-3.73-7.741-4.457-17.347-9.354-24.86
	c-2.462,6.844-4.985,13.999-6.125,21.099c-7.938-2.594-16.686-5.369-24.563-8.802c-6.252-2.727-6.113-2.769-6.336-9.939
	c-0.136-4.423-0.11-8.66-1.12-12.543c-3.963,6.744-10.046,13.733-12.67,20.869c-20.064-8.856-54.649-13.256-72.867-25.46
	c-4.608-3.087,18.527-15.357,20.068-15.953c7.528-2.908,34.414-6.708,41.706-8.463C368.594,177.532,383.247,179.434,392.177,179.183
	z"/>
<path fill="#568A4C" d="M31.746,244.643c0.818,11.612-2.543,22.297,1.174,32.849c16.545-5.068,24.316-1.301,31.803-14.875
	c6.375-11.56,8.552-30.917,11.972-43.671c2.971,13.565,1.888,28.33,5.445,41.572c11.686-2.941,24.139-2.708,30.606-11.953
	c5.631-8.049,5.416-30.219,8.777-39.842c4.464,14.682,8.618,21.771,11.227,36.602c27.931-4.241,37.189-9.466,57.711-7.682
	c0.589-10.65-1.947-21.679,0-32.692c0.133-0.752,20.58,30.192,20.58,30.192l76.205-12c0,0-25.071-42.189-25.833-47.808
	c-29.851,4.396-114.822,13.064-143.89,22.504c-15.031,4.881-30.558,5.936-45.332,11.078c-15.89,5.53-23.314,17.98-36.445,25.726"/>
<path fill="#73B467" d="M56.765,204.276c-24.679,16.79-39.512,36.142-41.931,65.304c10.451-2.198,19.971-6.189,30.478-7.354
	c-0.021-13.943,3.43-32.045,13.968-41.713c0.41,12.659,0.111,24.975,2.249,37.015c15.391-0.747,29.898-7.384,29.898-7.384
	s0.274-37.698,11.701-45.113c-0.787,7.963-0.162,15.601,0.951,23.28c1.473,10.158,0.687,10.983,8.666,11.817
	c11.393,1.19,37.71-6.821,49-8.984c-0.08-15.778,7.655-32.91,19.5-43.886c-0.09,14.19,1.002,26.447,3,40.07
	c16.066-5.934,32.381-1.654,48.871-6.685c4.129-17.264,8.736-32.585,11.794-39.595c4.63,9.869,7.616,26.468,7.285,37.878
	c16.003,0.717,24.128-3.157,37.181-2.843c6.903,0.166,17.235-7.33,32.571-5.44c6.773-4.987-26.804-33.686-37.205-36.999
	C215.108,151.472,117.242,163.131,56.765,204.276z"/>
<path fill="#49954F" d="M228.746,250.643c15-14,27-30,45-42c8.064-5.913,16.709-10.652,25.773-13.477
	c-15.27-0.366-32.687,2.894-43.773,3.699c-15.266,1.11-30.902,6.754-45.649,14.536c-3.327,1.756,26.243,5.295,23.02,7.241
	c-3.429,2.071-39.643,2.56-42.919,4.782c-23.165,15.714-42.071,34.381-50.547,44.285c10.925-1.947,21.362-5.192,32.584-5.996
	c-9.986,8.286-22.398,11.027-33.657,17.045c-12.691,6.781-21.051,14.833-31.156,25.667c11.247-3.559,21.426-6.936,33.46-8.335
	c-10.304,6.468-21.384,10.064-31.781,15.518c-16.187,18.527-18.408,30.659-15.519,40.9c7.781-7.205,20.88-14.218,30.011-18.842
	c-10.761,12.82-20.848,21.899-25.752,38.198c-3.185,10.583-3.889,22.734-6.512,32.55c1.885-0.407,3.714-0.887,5.5-1.423
	c3.499-3.696,6.212-8.02,8.918-12.35C141.746,337.643,181.746,294.643,228.746,250.643z"/>
<path fill="#5BAA5F" d="M299.519,195.166c-9.064,2.824-17.71,7.563-25.773,13.477c-18,12-30,28-45,42c-47,44-87,87-123,142
	c-2.706,4.33-5.419,8.653-8.918,12.35c24.152-7.253,39.512-25.983,51.851-46.657c-3.127,15.044-11.483,24.34-20.066,35.782
	c13.819-12.054,34.529-15.919,48.563-27.292c16.489-13.363,11.143-32.611,12.933-51.746c7.139,5.475,15.99,20.846,14.733,29.836
	c4.049-12.416,20.507-16.034,22.599-28.27c1.997-11.683-5.807-26.287-7.504-37.112c7.152,5.921,16.111,19.247,17.153,28.884
	c8.781-11.604,26.423-12.958,30.339-26.117c3.971-13.339-5.819-28.46-0.252-41.013c4.952,8.076,8.897,19.838,10.072,29.32
	c16.543-5.87,16.584-13.687,22.65-28.92c4.248-10.666,13.668-35.738,25.639-38.308C319.87,197.459,310.222,195.423,299.519,195.166z
	"/>
<path fill="#52A35F" d="M305.109,187.363c-7.344,1.697-18.191,7.094-23.654,16.016c-10.682,17.447-22.168,37.051-16.382,58.058
	c5.661-6.341,10.898-13.078,17.027-18.704c-8.01,14.295-14.079,30.49-14.834,48.243c-0.822,19.347,5.628,28.748,9.708,45.765
	c3.568-6.899,10.355-17.799,16.567-20.833c-4.066,8.836-6.018,20.444-7.515,30.568c-1.887,12.758,0.308,16.806,7.171,27.669
	c9.194,14.557,21.62,22.605,35.128,29.56c-7.192-12.824-7.515-24.743-10.079-39.488c6.753,34.242,30.024,52.334,56.343,65.94
	c3.195-31.323-7.908-55.795-17.161-84.323C339.539,294.047,326.765,237.894,305.109,187.363z"/>
<path fill="#52A35F" d="M360.811,341.277c-1.12-1.697-2.249-3.192-3.383-4.4C358.479,338.434,359.618,339.888,360.811,341.277z"/>
<path fill="#49954F" d="M396.131,333.627c-5.525-13.067-22.116-31.771-34.722-36.034c13.645,4.167,26.397,9.796,39.218,17.298
	c-3.9-32.689-16.61-63.308-48.956-65.881c10.092-3.933,23.526-0.146,34.522,0.016c-14.492-23.796-55.363-67.935-85.249-61.031
	c21.655,50.531,28.912,105.862,46.802,157.648c9.253,28.528,13.165,58.836,26.844,84.514c0.474,0.245,0.946,0.492,1.422,0.734
	c3.857-17.565,9.994-34.921,2.52-51.414c-4.572-10.088-10.961-27.956-17.72-38.2c-1.193-1.389-2.332-2.843-3.383-4.4
	c1.134,1.208,2.263,2.703,3.383,4.4c4.756,5.535,10.409,9.971,15.13,15.182c9.059,9.999,15.513,20.772,23.112,31.245
	C397.046,371.088,403.54,351.151,396.131,333.627z"/>
<path fill="#73B467" d="M106.194,26.425c0.1,3.253,1.642,7.151,3.834,9.314c18.842-11.777,47.095-19.166,68.864-10.097
	c-11.648,6.103-22.465,12.734-32.748,19.479c5.394,8.843,24.814-1.634,33.918-2.813c15.298-1.981,24.709,2.039,37.779,6.63
	c-13.6,5.3-24.997,16.092-37.564,23.204c12.852,3.541,13.914,5.349,26.615,1.682c9.525-2.749,19.547-4.225,29.749-4.75
	c-3.77,7.207-5.982,16.064-10.278,23.248c5.719,3.476,11.246,7.188,16.527,10.733c4.512-3,17.039-21.385,22.488-20.927
	c8.152,0.685,7.135,20.345,8.032,27.514c1.404,11.213-0.958,18.709,5.819,26.832c6.317,7.57,17.271,12.487,23.496,19.917
	c11.416-16.427-2.812-49.463-11.802-63.593c-11.115-17.47-27.982-32.544-43.478-45.637c-21.551-18.211-47.859-29.825-74.746-37.702
	c-11.671-3.419-20.229-5.502-31.928-2.148C135.865,8.719,106.014,20.521,106.194,26.425z"/>
<path fill="#73B467" d="M37.246,112.143c31.419-28.236,68.417-37.544,110.998-28.524c19.615,4.155,37.935,12.36,55.965,21.122
	c16.768,8.148,37.769,14.391,50.673,28.302c10.656,11.488,26.183,24.573,31.411,38.901c-14.858-7.883-25.638-20.587-43.972-23.226
	c0.391,4.159,1.849,8.18,2.359,12.349c-9.829,0.241-11.311,1.29-15.947-6.426c-2.688-4.474-5.143-11.942-6.574-16.911
	c-11.683,0.08-16.328,14.541-25.401,18.913c-8.455,4.074-16.404-2.736-26.437-3.576c1.063-8.857-1.191-18.868,2.238-27.349
	c-16.108,0.627-29.142,10.341-42.202,17.861c-2.684-1.659-4.496-2.804-7.462-4.013c5.377-7.43,5.575-16.988,11.674-23.96
	c-19.354-0.769-36.009,5.206-46.825,20.847c-3.717-4.059-9.673-4.343-14.919-4.387c6.327-12.831,19.24-21.963,26.98-33.924
	c-12.944-7.925-45.787,11.383-53.911,20.462c-2.391-2.233-5.063-4.048-7.648-5.462L37.246,112.143z"/>
<path fill="#90C985" d="M227.722,171.52c-25.179-1.823-45.414,3.52-69.963,8.498c-38.14,7.736-73.006,14.452-106.015,36.223
	c-12.26,8.086-22.497,22.919-29.312,35.436c4.452-0.992,8.245,1.453,12.639,2.016c-6.216-13.774,18.294-33.29,28.673-38.611
	c3.321,6.156,4.995,18.715,4.576,26.01c5.256-2.97,8.806-2.188,11.914-6.059c2.65-3.302,4.176-11.124,6.536-15.389
	c4.865-8.793,11.871-19.398,22.862-20.95c2.262,7.862,5.515,17.003,6.201,24.898c9.083-4.882,23.618-5.495,33.825-8.035
	c4.477-14.512,20.563-37.507,38.012-36.838c2.172,9.78,5.53,18.879,6.65,28.86c7.098-2.319,24,0.66,30.925-2.628
	c7.48-3.552,8.761-15.043,14.5-22.03c10.659-12.977,9.397,6.383,22.949,15.945c-2.355-1.661,26.491-10.84,29.015-10.471
	C274.124,171.861,250.575,173.175,227.722,171.52z"/>
<path fill="#90C985" d="M154.746,80.309c-15.182,9.077-35.248,6.222-49.265,19.915c1.224,2.663,4.6,5.9,7.204,7.179
	c9.82-8.473,26.086-14.479,39.323-12.293c-5.268,6.535-8.379,14.775-12.009,21.584c1.985,1.131,6.768,3.147,9.368,4.376
	c8.328-7.393,21.057-15.352,32.413-16.158c2.276,8.123,4.808,19.897,2.365,27.928c6.614,0.691,12.742,3.112,19.687,3.516
	c1.324-5.445,5.229-11.222,6.38-17.164c4.719,7.161,11.121,11.699,16.648,18.367c7.459-4.054,15.911,0.179,23.652,0.649
	c-6.319-21.562-36.543-24.708-53.265-35.067c-18.855-11.681-33.264-21.523-55.983-23.35c-15.077-1.212-32.752-5.349-47.245-0.78
	c-0.309-0.425,2.244,3.957,2.14,3.817c1.737,2.183,4.948,5.727,6.686,7.381c3.715-0.732,6.762-0.467,9.901-2.949
	c9.766,1.195,22.641-1.848,32.667-2.95L154.746,80.309z"/>
<path fill="#90C985" d="M154.963,12.445c2.89,8.819,28.845,11.861,37.878,13.213c0.485-0.002,0.491-0.017,0.016-0.044
	c-6.733,2.849-14.383,6.311-20.541,10.547c5.103,4.925,11.672,1.048,17.863-0.618c10.093,3.823,25.424,4.646,37.166,8.232
	c-4.843,7.216-13.482,12.184-18.677,18.27c7.963,1.603,8.214,3.283,16.73,1.613c6.555-1.286,12.879-5.892,19.915-5.915
	c0.426,8.381-4.282,16.706-5.115,25.132c3.255,1.534,7.643,3.145,11.083,4.037c2.976-5.658,6.063-12.185,11.5-16.036
	c8.329,11.587,18.087,26.821,22.082,40.665c5.362,0.919,10.793,1.999,16.484,1.299c-8.186-20.297-26.811-39.365-42.603-54.012
	c-15.657-14.522-30.747-28.309-49.884-38.104C189.797,10.967,175.978,12.745,154.963,12.445z"/>
<path fill="#C8E0A0" d="M73.596,201.707c-0.383,0.711-1.009,1.849-1.601,2.371c-0.003-0.157,0.626-0.744,0.783-0.868
	c-1.221,3.896-1.689,7.44-2.588,10.886c0.057-0.082,0.613-0.819,0.608-0.888c-0.758,1.331-1.191,3.141-1.787,4.534
	c16.87-2.678,25.186-20.673,43.584-25.382c1.767,4.309,4.01,8.505,6.785,12.012c7.396-3.952,16.828-3.457,23.516-7.396
	c7.417-4.368,12.9-12.34,20.186-16.701c16.932-10.137,30.956-9.439,38.43,9.301c7.517-2.936,17.624-0.083,24.57-3.397
	c7.105-3.391,9.48-12.733,18.057-15.903c-21.393-1.814-54.82-3.308-79.635,0.704C132.807,176.104,102.74,188.687,73.596,201.707z"/>
<path fill="#C8E0A0" d="M74.246,202.143c-5.185,3.486-13.56,5.947-19.462,9.598c4.841,5.021,15.868-2.854,22.387-3.659
	c0.426-1.618,0.686-5.939,0.511-7.352c-1.596-0.326-3.337,0.003-4.435,0.413"/>
<path fill="#C8E0A0" d="M120.286,81.719c1.695,1.946,4.043,6.31,6.071,7.813c5.743,4.257,2.462,2.305,9.389,1.736
	c8.628-0.709,16.797-2.054,25.81-2.16c-1.73,3.432-2.87,7.374-4.383,10.534c10.11,5.466,14.432,3.71,23.823-2.548
	c5.876,5.434,11.544,11.704,14.349,18.974c5.505-2.858,10.87,0.28,16.826-0.001c1.419-15.347-26.805-21.796-37.158-25.423
	c-8.32-2.914-16.768-6.855-25.472-8.417C144.519,81.324,122.577,84.348,120.286,81.719z"/>
<path fill="#C8E0A0" d="M195.811,25.006c0.103,0.25,2.476,4.776,3.01,5.56c12.273,2.194,23.771,4.521,35.872,7.653
	c-2.179,4.421-5.689,7.698-8.422,11.047c8.396,8.569,13.677,7.259,22.475,0.078c3.497,4.515,4.463,11.188,4.575,16.723
	c5.538,0.496,11.001,1.88,16.375,2.973c-2.47-10.669-16.423-21.837-25.342-27.262c-9.369-5.699-16.987-13.9-27.817-16.642
	C215.117,24.776,196.098,25.709,195.811,25.006z"/>
<path fill="#C8E0A0" d="M351.569,28.645c-9.754,4.106-17.973,8.004-25.909,15.274c6.948,2.877,14.44,8.354,20.046,12.2
	c-6.555,6.134-9.739,8.142-17.433,7.137c-5.468-0.714-10.65-3.997-15.452-5.438c0.469,7.481,0.425,15.01,1.627,22.309
	c-8.137,3.021-10.593,3.548-17.19-1.01c-4.191-2.896-7.5-7.481-11.435-10.392c10.896-10.458,18.762-23.755,30.793-33.087
	c4.424-3.431,9.694-7.207,15.182-8.619C337.277,25.608,347.779,30.24,351.569,28.645z"/>
<path fill="#90C985" d="M415.133,95.532c14.357-1.453,39.847-5.346,47.988,9.234c1.363,2.441,1.931,5.764,2.673,8.401
	c-3.467,1.658-11.996,5.39-16.022,4.976c-5.422-0.558-8.838-5.377-13.39-9.135c-6.037-4.984-8.427-9.129-13.759-1.876
	c-3.111,4.232-4.005,12.986-4.452,17.936c-13.929,0.362-17.922-7.743-29.276-13.369c-5.938,6.597-10.717,18.995-12.738,27.395
	c-5-0.424-10.617,3.197-14.799,1.937c-4.643-1.399-6.031-7.492-9.487-9.901c-5.734-3.997-6.129-5.154-12,1.112
	c-3.47,3.703-5.869,10.179-7.6,14.764c-2.297-3.751-5.671-6.783-9.847-7.937C342.431,108.554,381.263,98.96,415.133,95.532z"/>
<path fill="#90C985" d="M351.746,192.143c4.497,1.611,13.734-1.12,20-1c10.425,0.2,21.608-0.028,32.013,0.976
	c17.243,1.665,33.163,4.488,49.487,8.927c15.56,4.23,35.616,16.278,24.975,35.572c-0.623,1.128-0.729,3.486-1.049,4.839
	c-8.23,1.313-11.813-9.464-15.801-15.314c-4.18-6.132-8.657-11.602-14.023-16.487c-0.174,7.704-2.464,14.996-2.666,22.912
	c-14.078,1.034-16.409-21.136-22.913-29.756c-4.918,6.317-5.99,17.668-11.158,22.72c-5.097,4.982-10.111-0.777-18.9-1.442
	c-1.099-13.442-8.482-32.623-23.052-15.035c-7.102-3.052-15.597-8.507-22.413-12.411L351.746,192.143z"/>
<path fill="#C8E0A0" d="M393.245,184.643c9.003,0.835,16.337,3.016,24.89,5.4c16.753,4.671,26.389,2.925,27.036,22.524
	c-13.003,0.334-21.406-6.171-29.802-15.911c-3.137,5.558-5.114,11.436-8.223,16.964c-4.917-2.717-11.287-3.508-16.814-4.566
	c1.125-5.921-2.728-10.713-5.174-15.824c-7.886-0.817-10.616,5.655-17.913,5.415c-6.315-0.209-12.442-3.611-18.311-5.581
	C353.419,181.616,383.846,183.772,393.245,184.643z"/>
<path fill="#C8E0A0" d="M443.754,91.643c-4.219-0.669-9.091-0.344-13.324-0.649c-10.789-0.778-23.178-1.675-33.935-0.367
	c-13.521,1.645-26.306,7.991-38.731,12.925c-8.631,3.427-14.508,5.447-20.707,11.116c6.29-0.354,13.778-3.64,20.973-2.975
	c1.09,3.85,0.42,8.225,1.101,12.233c5.071-0.481,6.915-0.511,10.533-3.616c3.635-3.12,6.466-7.907,9.742-11.316
	c5.286-5.501,5.576-6.674,13.091-4.749c5.563,1.425,11.014,3.569,16.533,4.689c-0.186-7.3,6.32-6.226,1.751-13.891
	c6.539-0.426,15.308-1.057,21.299,1.24c4.424,1.696,8.136,5.943,12.945,7.297c1.94-3.036,6.772-3.293,9.073-5.945
	C451.723,94.755,447.565,92.247,443.754,91.643z"/>
<path fill="#73B467" d="M187.122,310.019c12.099-14.465,22.107-30.419,35.624-43.901c9.211-9.189,19.315-17.615,29.121-25.798
	c3.011,7.96,4.638,18.374,5.379,26.798c0.884,10.048-3.626,15.394-7.877,24.489c-8.304-10.985-18.567-34.209-31.234-14.464
	c-6.685,10.421,4.12,42.194-8.502,47.389c-0.293,0.121-1.782,1.444-1.914,1.571c-4.651-6.007-13.322-13.289-20.35-15.407
	c-7.33,10.698-8.289,21.969-12.247,34.044c-5.218,15.921-9.989,15.561-23.774,22.379c0.672-0.332,1.113-15.691,1.481-17.561
	c1.354-6.876,1.603-9.053,6.644-14.59C167.848,325.768,179.09,319.622,187.122,310.019z"/>
<path fill="#90C985" d="M158.746,355.143c4.067-3.259,8.765-4.81,11.512-9.1c2.08-3.249,4.13-10.911,5.486-14.875
	c3.713-10.845,8.167-17.656,14.077-27.438c5.497,0.354,9.769,4.893,13.798,8.336c4.156-6.509,8.369-9.045,10.127-16.423
	c1.588-6.664,1.032-15.567,1.064-22.425c7.275-1.52,14.898-5.669,22.424-7.587c9.507-2.423,11.119-8.096,14.314-17.988
	c-2.484-2.984-4.887-5.923-8.039-7.948c-14.691,13.039-26.821,30.627-41.263,44.96c-13.998,13.893-30.123,24.636-39.876,42.124
	c-4.124,7.394-8.553,18.349-6.124,26.864L158.746,355.143z"/>
<path fill="#73B467" d="M337.135,350.504c3.737,12.75,8.494,26.752,9.611,39.71c-0.006,0.376-0.002,0.372,0.012-0.012
	c-3.032-9.234-10.256-13.807-16.512-21.035c-6.294-7.274-9.176-16.557-12.111-24.996c-1.84,8.137-7.382,17.491-10.514,25.893
	c-24.09-19.2-1.521-41.332-3.45-67.234c-9.133-0.617-18.948,4.723-24.3,12.15c-1.214-6.403-3.816-13.259-4.525-19.835
	c-0.949-8.81,2.219-11.546,5.801-19.517c4.484-9.98,14.518-28.544,14.024-39.399c-6.61-3.234-13.235-0.828-19.499,1.76
	c2.015-8.945,6.964-18.8,13.689-25.213c15.235-14.526,23.65,40.875,25.709,49.352C322.236,291.631,328.59,321.35,337.135,350.504z"
	/>
<path fill="#90C985" d="M304.246,218.143c5.764,23.249,12.901,46.314,16.012,70.124c2.561,19.602,11.287,37.573,15.477,56.876
	c2.005,9.235,3.873,18.381,6.073,27.336c-10.301-16.246-18.306-29.279-24.537-47.161c-4.791,4.018-8.313,13.36-9.597,19.176
	c-9.476-6.425-0.482-41.266,1.886-51.36c-7.749-2.447-12.855,5.224-20.349,4.358c-2.818-17.858,6.079-27.923,10.022-44.86
	c2.626-11.281,0.621-21.633-0.986-32.988"/>
<path fill="#C8E0A0" d="M302.246,211.143c5.568,17.943,5.15,37.338,11.125,55.5c5.747,17.468,18.645,54.387,20.336,72.434
	c-4.095,0.121-15.917-18.111-18.998-15.595c-2.11-12.998-0.182-26.202-0.538-39.764c-4.512-0.193-9.064-0.074-13.35,0.36
	c1.348-13.833,2.224-26.456,0.536-40.047c-1.156-9.314-5.896-25.314-1.611-33.889"/>
<path fill="#C8E0A0" d="M257.246,225.143c-27.338,24.032-50.561,53.092-77.236,79.252c-18.73,18.366-36.619,34.922-49.564,58.184
	c10.328-10.074,22.985-18.581,34.348-26.461c0.385,0.014,0.39,0.02,0.015,0.017c-4.135,3.062-5.662,8.505-7.012,13.406
	c13.072,0.539,14.513-11.619,20.074-22.008c4.835-9.033,11.067-17.945,15.868-26.45c1.612,1.778,4.717,2.44,6.343,3.996
	c11.908-5.82,6.652-19.384,15.777-28.811c9.648-9.968,14.119-16.334,26.899-8.8c2.262-5.585,4.019-11.961,8.552-15.825
	c-1.413-3.425-2.326-7.01-3.488-10.375c6.151-4.146,6.726-13.532,13.425-16.125H257.246z"/>
<path fill="#5BAA5F" d="M165.696,252.645c0.301,0.496,0.465,0.841,0.637,1.411c3.994,0.086,16.816-0.505,18.8,3.7
	c2.339,4.958-9.97,10.857-13.387,12.887c-11.693,6.947-26.858,11.723-36.825,20.524c6.57-0.459,12.984-1.239,19.749-0.948
	c0.64,8.197-20.496,15.795-26.313,19.561c-8.161,5.285-12.912,12.285-20.071,18.262c7.85,0.517,15.975-3.857,23.884-1.825
	c-0.778,13.112-16.186,24.3-20.335,36.999c31.88-32.92,61.863-71.448,97.286-102.698c4.951-4.367,10.263-8.209,15.113-12.85
	c4.64-4.44,7.743-9.903,12.137-14.428c8.24-8.486,20.411-15.501,26.322-25.011c-10.753-0.516-20.798,1.596-30.909,3.011
	c3.734,2.159,7.791,4.795,11.409,7.532c-7.018,10.569-27.376,10.931-38.393,12.952c-7.495,1.375-15.083,2.929-21.999,6.247
	C180.513,239.069,163.776,249.481,165.696,252.645z"/>
<path fill="#73B467" d="M184.422,248.669c6.177,1.458,12.899,2.22,19.276,4.074c-3.795,7.233-16.15,12.409-22.718,16.9
	c-6.539,4.471-16.752,9.847-20.534,16.637c4.265,3.236,9.691-0.23,14.109,1.353c-13.164,11.322-29.422,19.436-42.633,30.645
	c3.044,1.166,6.563,1.245,9.61,2.855c-2.768,5.911-8.28,11.387-12.147,16.649c-3.397,4.622-6.204,11.923-9.575,15.532
	c12.033-8.945,22.112-21.358,32.299-32.087c7.397-7.791,14.427-15.774,21.137-24.082c6.234-7.719,12.959-15.386,19.778-22.528
	c7.178-7.517,15.845-12.519,23.236-19.974c4.881-4.924,15.64-12.579,17.92-19.001c-5.602-3.591-18.019,0.921-23.939,2.61
	c-4.548,1.298-9.059,2.778-13.458,4.518C194.591,243.637,186.316,249.116,184.422,248.669z"/>
<path fill="#C8E0A0" d="M183.246,270.143c-3.824,2.059-9.55,3.56-11.35,8.125c-2.4,6.09,4.594,4.02,9.811,4.951
	c-8.063,14.666-30.79,18.425-38.273,33.962c2.21-0.047,4.043,0.151,6.134,0.427c-6.049,7.43-11.964,11.251-16.636,19.583
	c16.368-8.481,27.749-25.928,39.924-39.035c6.46-6.954,12.217-14.754,18.402-21.485c4.334-4.717,9.655-9.588,12.935-14.928
	c-3.284-1.138-6.562-0.293-9.948-0.1L183.246,270.143z"/>
<path fill="#52A35F" d="M327.746,213.143c0.529,0.5,1.149,0.309,1.085,1.426c8.715,1.809,31.698,9.049,34.852,18.6
	c-5.976,6.146-16.435,6.206-23.873,11.05c2.696,8.423,20.991,12.898,27.45,18.815c6.699,6.136,14.973,17.28,14.021,26.921
	c-6.435-3.935-19.599-3.968-26.448-1.224c-1.613,8.2,13.815,20.514,19.327,25.8c5.525,5.298,17.641,30.912,17.585,38.784
	c-5.161,0.56-12.448-14.066-18.065-14.237c-5.37-0.163-11.009-3.739-16.252-2.2c-1.176,8.349,5.422,18.237,7.817,26.34
	c2.272,7.686,1.797,20.596,0.512,28.224c-5.974-8.572-8.696-19.213-11.499-29.286c-3.707-13.323-6.836-26.485-9.888-39.999
	c-5.786-25.62-16.147-49.889-21.639-75.511c-1.29-6.019-4.627-11.389-6.097-17.391c-0.85-3.469-4.283-14.325-2.389-16.611
	L327.746,213.143z"/>
<path fill="#73B467" d="M323.246,227.643c6.045,1.408,15.592,3.076,19.639,8.351c5.04,6.569-3.514,11.15-8.063,15.774
	c2.749,5.502,10.882,7.583,15.924,10.374c5.214,2.886,11.058,6.448,14.923,10.865c-5.868,6.143-15.714,6.904-22.845,11.237
	c5.717,15.114,26.197,22.372,29.861,37.786c-8.102,5.42-17.518,0.401-17.939,13.113c-0.308,9.324,3.429,18.024,4.661,26.436
	c-7.074-9.864-8.897-22.447-12.798-33.559c-3.678-10.477-5.291-21.876-7.863-32.778c-2.143-9.085-3.33-18.398-6.389-27.1
	c-2.823-8.031-8.543-14.963-10.988-23c-1.669-5.488-1.202-11.412-3.623-16.5L323.246,227.643z"/>
<path fill="#C8E0A0" d="M324.746,252.143c5.233,5.434,6.33,18.817,8.474,25.989c2.042,6.831,3.909,13.784,5.502,20.511
	c2.717,11.474,8.151,24.044,11.022,34.073c-0.294-10.631,4.639-11.495,13.839-12.536c-5.418-4.834-8.268-11.847-13.95-16.913
	c-6.473-5.771-10.979-10.753-8.359-20.099c0.858-3.06,6.394-7.481,6.131-9.552c-0.322-2.531-7.841-5.813-8.797-7.837
	C327.746,242.783,324.746,252.143,324.746,252.143z"/>
<path fill="#C8E0A0" d="M191.746,266.643c6.989-5.596-1.808-11.079-4.849-16.749c9.524-8.55,25.61-11.337,37.694-12.103
	c-1.914,12.979-20.873,25.677-31.845,30.852L191.746,266.643z"/>
</svg>
