<?xml version="1.0" encoding="utf-8"?>
<!-- Generator: Adobe Illustrator 17.0.0, SVG Export Plug-In . SVG Version: 6.00 Build 0)  -->
<!DOCTYPE svg PUBLIC "-//W3C//DTD SVG 1.1//EN" "http://www.w3.org/Graphics/SVG/1.1/DTD/svg11.dtd">
<svg version="1.1" xmlns="http://www.w3.org/2000/svg" xmlns:xlink="http://www.w3.org/1999/xlink" x="0px" y="0px" width="460px"
	 height="300px" viewBox="0 0 460 300" enable-background="new 0 0 460 300" xml:space="preserve">
<g id="圖層_1">
	<path opacity="0.3" fill="#231815" enable-background="new    " d="M63.345,277.863c-7.963,0.822-15.217,7.001-8.543,11.77
		c7.007,5.005,23.908,1.833,31.932,0.972c22.203-2.374,42.04,4.672,64.169,5.632c8.987,0.391,20.659,0.681,24.895-6.005
		c4.034-6.368-2.793-10.102-11.138-11.737c-14.175-2.778-31.785,2.078-45.881,2.692c-8.95,0.391-17.625,0.486-26.527-0.905
		c-8.819-1.381-19.611-0.287-27.914-2.729"/>
	<path fill="#F4B371" d="M81.978,45.215c-10.01-18.12-32.005-23.544-50.669-18.209C9.513,33.246,1.965,58.312,6.75,80.212
		c1.794,8.195,6.337,18.746,16,18.538c-3.083,18.068-6.603,42.63,3.75,57.948c9.399,13.913,28.944,19.599,42.666,23.831
		c-6.988,10.228-6.374,21.842,5.928,26.591c-0.156,0.162,0.303,1.302,0.48,1.43c-15.734,6.594-5.54,16.091,2.768,19.847
		c11.728,5.299,22.844,5.464,35.691,3.887c10.759-1.323,18.181-3.141,27.981-7.841c3.822-1.827,12.308-7.077,14.542-11.563
		c1.879-3.768-4.621-10.252-4.923-15.113c0.064-0.192,0.134-0.382,0.205-0.574c18.151-1.671,60.429-9.112,68.203-27.11
		c-4.33,7.645-18.23,18.349-26.96,18.465c-14.02,0.181-16.706-14.689-2.536-19.006c-4.296-10.732,7.538-9.314,11.358-15.862
		c2.732-4.675,6.719-16.504,7.587-22.628c2.509-17.732-5.176-32.078-9.655-48.765c21.863,16.311,19.144-37.924,13.246-47.534
		c-24.131-15.385-44.556,6.888-62.218,10.338c-25.237,4.932-47.951-25.039-71.379-20.856c-0.242,5.344-0.773,10.814-2.888,15.642"/>
	<path fill="#FFFFFF" d="M122.152,45.325c-1.742,27.917-20.467,56.839-41.704,75.607c-12.69,11.205-48.019,42.723-19.653,56.406
		c25.075,12.104,57.748,6.345,84.012,2.483c12.372-1.815,25.252-3.535,36.861-8.666c7.624-3.377,19.006-14.084,20.589-23.003
		c3.404-19.187-25.634-37.105-44.842-51.665c-9.931-7.529-28.054-41.322-30.022-50.297c-1.87,0.412-5.118-1.085-6.927-0.205"/>
	<path fill="#FFFFFF" d="M128.954,187.051c5.861,7.976,8.153,23.562,7.322,33.432c-1.018,12.262-15.721,13.014-25.964,13.552
		c-8.861,0.464-34.609-0.59-38.376-9.613c-1.916-4.584,5.516-16.822,11.67-13.03c10.562,5.659,3.973,10.059,10.256,12.876
		c6.637,2.964,11.88-2.001,12.668-7.785c10.774,0.153,16.845-8.05,13.427-15.001c-3.052-5.604-5.684-3.153-9.992-6.032
		c-3.172-2.124-3.905-6.888-6.888-9.729c7.596-1.641,16.632-1.045,24.277,0.413"/>
	<path fill="#F4B371" d="M201.59,166.113c-8.171,14.35,4.642,23.095,17.173,12.333c13.234-11.364-3.783-24.329-16.32-14.065
		c-1.733,1.424-2.912,2.353-3.627,4.584"/>
	<path fill="#E38384" d="M48.445,23.086c-8.568-36.558,50.889-5.723,62.024,4.391c5.946-5.803,21.359-0.055,28.949-0.837
		c8.696-0.895,8.871-8.687,17.118-12.131c11.504-4.807,34.92-11.905,37.343,6.392c0.294,2.203,0.801,4.425,0.801,6.793
		c-16.076-1.62-30.679,8.941-39.363,21.607c-14.89-6.815-56.481-7.599-71.042-1.381c-3.334-7.865-10.985-12.003-18.456-15.828
		c-5.901-3.025-16.345-3.713-19.786-9.121"/>
	<path fill="#F4B371" d="M57.924,259.137c1.302,4.199,1.756,12.952,5.307,15.586c-1.531,0.538,2.308,2.83,1.285,3.377
		c3.63,3.279,11.85,3.019,16.653,2.258c1.354-7.771,0.017-9.844-3.516-15.32c-3.358-5.207-7.566-11.352-10.047-16.706"/>
	<path fill="#F4B371" d="M131.694,262.875c2.09,5.424,15.425,12.962,10.698,18.45c5.027,1.809,12.66-1.943,17.665-3.749
		c-1.546-5.378-1.299-14.27-5.778-17.857c-10.127,6.625-10.355-6.628-18.911-5.904c-0.272,1.736-4.3-1.26-4.734-0.029"/>
	<path fill="#4FAF74" d="M96.392,198.192c-5.192-4.675-1.369-11.496,5.314-10.948c3.254,0.266,5.387,0.666,6.282,3.972
		c1.396,5.21-1.91,4.275-4.113,6.203c-3.193,2.793-10.307,5.473-7.701,12.834c1.937,5.464,13.822-0.067,10.116,8.578
		c-4.217,9.861-19.723,7.34-14.626-3.74c-13.888,2.771-7.514-27.709,3.309-17.726"/>
	<path fill="#4FAF74" d="M207.647,163.791c-2.787-16.556-28.134,4.95-14.236,9.406c-9.885-6.206-17.289,13.454,0.813,12.733
		c-8.589,10.176,15.575,21.255,14.628,5.29c3.578,1.179,11.422,2.564,14.349-0.944c3.78-4.529-0.14-11.419-4.134-13.561
		c-2.86,6.979-15.123,10.967-19.761,5.821c-7.285-8.085,1.085-14.203,6.897-19.181"/>
	<path fill="#4FAF74" d="M62.624,215.832c-22.496,19.196-21.063,47.091-9.769,48.976c2.677-7.526,10.588-13.567,16.247-18.893
		c-0.086,6.955,4.895,17.405,9.824,22.404c9.91,10.05,46.009,5.167,53.597,2.167c-2.276-3.887-2.047-15.034-1.674-19.676
		c4.544,3.373,11.731,7.123,19.889,11.715c3.404,0.55,30.008-9.917,32.443-27.276c0.085-3.248-19.896-23.494-24.877-21.89
		c-4.669,1.51-7.566,7.285-13.665,9.702c-6.34,2.512-12.953,3.56-19.401,5.714c-18.554,6.206-50.581,8.785-60.854-11.725"/>
	<path fill="#FFFFFF" d="M49.762,62.843c2.582-2.182,13.907-7.936,14.182-10.884c0.632-6.878-24.846-17.274-30.233-16.25
		c-12.348,2.344-13.818,18.814-12.296,28.442c0.593,3.716,2.505,13.824,6.68,15.413C33.409,81.59,45.203,66.696,49.762,62.843z"/>
	<path fill="#FFFFFF" d="M185.609,61.822c2.655,2.848,5.243,11.795,8.568,12.917c11.6,3.902,14.398-24.577,10.035-30.78
		c-4.987-7.102-19.135-5.491-26.12-2.619C159.675,48.921,178.517,54.217,185.609,61.822z"/>
	<path opacity="0.3" fill="#231815" enable-background="new    " d="M56.528,24.919c-0.312-26.132,42.651,4.021,49.08,10.631
		c4.706-4.779,14.111-4.989,20.681-4.314c9.21,0.944,13.13,2.43,15.98,4.402c3.73-4.402,47.049-23.3,44.21-8.327
		c-0.131,0.715-4.434,0.44-4.428,1.189c-9.809,2.765-25.402,8.651-27.198,19.535c-16.522-5.378-31.489-6.802-49.45-4.363
		c-8.874,1.204-15.194,6.313-22.149,2.179c-7.141-4.238-10.401-12.962-18.407-16.18c-3.752-1.503-7.578-2.283-11.3-3.93"/>
	<path opacity="0.3" fill="#231815" enable-background="new    " d="M23.309,114.365c8.843,37.732,42.37,49.401,76.322,57.09
		c24.669,5.582,49.456,3.887,74.183,2.258c-7.994,12.033-35.003,8.794-47.443,9.13c-17.426,0.483-34.911,0.095-52.127-2.619
		c-14.542-2.289-35.281-8.189-44.521-20.601c-7.211-9.68-12.855-32.68-9.396-44.921c0.504-1.788,0.944-2.386,2.316-3.817"/>
	<path opacity="0.3" fill="#231815" enable-background="new    " d="M156.596,183.245c-8.449-0.14-35.309,5.771-39.135,15.164
		c4.278,3.463,5.58,5.512,3.526,11.81c-2.108,6.487-1.164,9.268-6.389,9.231c-3.807,6.823-0.416,10.083,3.926,12.787
		c4.461,2.771-31.005,0.85-37.049-1.093c-8.663-2.796-23.727-20.131-6.836-21.167c3.166-0.196,12.142,2.304,14.324,4.284
		c3.172,2.891-2.66,4.269,0.389,8.055c6.084,7.533,15.358-0.588,17.79-7.441c8.727,1.546,18.49-3.59,12.733-13.297
		c-3.142-5.289-6.347-1.659-10.799-4.29c-4.284-2.53-2.753-6.447-4.278-11.034c8.366-5.476,24.494,1.727,34.468-1.051"/>
	<path opacity="0.3" fill="#231815" enable-background="new    " d="M138.937,227.245c-7.413,7.661-19.046,9.757-28.748,12.538
		c-8.721,2.499-18.328,7.187-18.322,17.573c0.006,5.363,2.292,10.466,5.54,14.392c-2.234,1.042-6.227-0.523-8.892-0.385
		c-1.516,0.083-3.019,0.156-4.513,0.214c-2.826,0.113-1.763,1.112-3.847-0.99c-1.738-1.748-3.639-5.128-4.828-7.37
		c-0.645-1.207-1.177-4.611-2.151-5.265c-2.42-1.632-6.753,1.507-8.394,3.282c-2.108,2.28-3.945,5.968-5.051,8.935
		c-0.48-1.943-1.855-5.534-3.661-6.726c-3.539-2.328-6.133-0.119-8.388-5.277c-5.039-11.545,4.425-24.158,10.307-33.655
		c1.03-1.672,5.067-6.096,6.396-7.459c0.721,3.453,3.459,8.715,6.209,10.493c4.156,2.686,8.926,3.416,13.842,3.884
		c11.009,1.06,22.665,1.717,33.565-0.303c5.491-1.014,16.5-2.077,20.854-5.212"/>
	<path opacity="0.3" fill="#231815" enable-background="new    " d="M138.863,271.268c-2.344-8.703,10.34-0.737,13.741-1.262
		c3.377-0.525,4.895-2.891,2.826-5.564c-2.738-3.538-9.128-4.542-12.828-7.163c-3.734-2.646-9.409-4.652-13.769-4.581
		c2.53,5.815,3.346,8.449,3.801,14.945"/>
	<path opacity="0.3" fill="#231815" enable-background="new    " d="M11.612,45.438c-2.362,14.24,4.187,38.227,16.88,44.839
		c-6.704,6.814-15.156,12.47-20.25-0.905c-5.228-13.744-1.806-30.248,2.286-43.987"/>
	<path opacity="0.3" fill="#231815" enable-background="new    " d="M215.069,45.851c1.345,12.702-2.503,27.535-15.208,33.148
		c1.76,3.969,1.711,7.621,5.9,8.253c4.192,0.632,9.839-4.483,11.56-7.85c3.526-6.89,4.874-25.133,0.529-31.605"/>
	<path fill="#6B5B4B" d="M115.463,45.383c2.365,5.506-4.403,28.103,13.414,24.427c5.06-1.039,4.678-14.976,4.409-19.578
		c-0.4-6.823-3.444-9.026-10.655-8.14c-2.518,0.312-4.941,1.198-7.114,2.564"/>
	<path fill="#6B5B4B" d="M92.276,46.92c0.819,4.501-0.745,22.762,10.671,19.174c6.173-1.94,5.87-19.856,1.436-21.735
		c-3.456-1.461-10.643-0.242-13.075,2.515"/>
	<path fill="#6B5B4B" d="M141.118,46.138c1.947,6.065-0.798,17.839,7.322,19.015c8.198,1.192,10.187-12.819,5.592-17.362
		c-2.497-2.472-10.603-3.377-13.604-2.17"/>
	<path fill="#6B5B4B" d="M153.631,205.574c-3.392,2.533-14.438,5.152-9.402,10.591c3.163,3.407,11.199-0.687,14.074-2.805
		c-0.706-3.379-1.763-6.857-5.011-8.177"/>
	<path opacity="0.3" fill="#231815" enable-background="new    " d="M74.032,183.02c-2.463,3.434,10.926,10.347,18.165,12.672
		c0.094-0.089,0.186-0.171,0.284-0.253c0.064-3.419,3.085-7.941,6.08-9.894c-7.123-1.274-16.763-1.033-22.342-4.08"/>
	<path fill="#E38384" d="M35.15,132.751c7.248,6.775,38.086,3.3,37.585-10.053C71.941,101.635,17.647,116.394,35.15,132.751z"/>
	<path fill="none" stroke="#383636" stroke-width="5" stroke-linecap="round" stroke-linejoin="round" stroke-miterlimit="10" d="
		M161.937,51.98c-23.633-10.57-61.385-11.306-82.693-1.821"/>
	<path fill="none" stroke="#383636" stroke-width="5" stroke-linecap="round" stroke-linejoin="round" stroke-miterlimit="10" d="
		M200.136,156.698c13.974-15.645,12.256-52.264-1.842-77.129"/>
	<path fill="none" stroke="#383636" stroke-width="5" stroke-linecap="round" stroke-linejoin="round" stroke-miterlimit="10" d="
		M28.492,90.277c-6.157,12.782-11.043,24.094-9.023,43.831c5.048,33.203,31.474,45.239,67.509,48.586
		c31.565,3.401,78.012,2.285,101.971-13.735"/>
	<path fill="none" stroke="#383636" stroke-width="5" stroke-linecap="round" stroke-linejoin="round" stroke-miterlimit="10" d="
		M23.41,96.596C3.16,101.348,4.489,64.591,8.816,49.966C16.37,24.464,31.208,19.067,57.35,27.773
		c6.289,2.765,27,11.031,25.035,19.523"/>
	<path fill="none" stroke="#383636" stroke-width="5" stroke-linecap="round" stroke-linejoin="round" stroke-miterlimit="10" d="
		M156.598,48.31c-5.943-9.913,40.063-28.002,53.838-13.806c13.161,13.567,12.69,56.683-6.038,51.47"/>
	<path fill="none" stroke="#383636" stroke-width="5" stroke-linecap="round" stroke-linejoin="round" stroke-miterlimit="10" d="
		M107.154,43.73c-5.815-6.417,0.104-19.556,16.473-20.116c12.916-0.434,25.078,11.578,14.97,20.03"/>
	<path fill="none" stroke="#383636" stroke-width="5" stroke-linecap="round" stroke-linejoin="round" stroke-miterlimit="10" d="
		M48.234,24.702c-4.819-8.296,0.84-22.001,18.496-20.039c17.307,1.925,35.409,18.028,42.914,23.908"/>
	<path fill="none" stroke="#383636" stroke-width="5" stroke-linecap="round" stroke-linejoin="round" stroke-miterlimit="10" d="
		M139.419,26.639c14.945-13.381,61.297-28.265,54.804,0.003"/>
	<path fill="none" stroke="#383636" stroke-width="5" stroke-linecap="round" stroke-linejoin="round" stroke-miterlimit="10" d="
		M156.556,212.88c0.299-4.143-1.097-9.036-3.288-13.656"/>
	<path fill="none" stroke="#383636" stroke-width="5" stroke-linecap="round" stroke-linejoin="round" stroke-miterlimit="10" d="
		M70.324,208.443c-1.723,2.426-3.615,4.862-5.436,7.481"/>
	<path fill="none" stroke="#383636" stroke-width="5" stroke-linecap="round" stroke-linejoin="round" stroke-miterlimit="10" d="
		M57.924,259.137c0.85,6.906,8.257,21.093,7.355,21.815c1.583,1.13,11.416,2.396,13.301,0.975c1.558-1.179,1.332-6.845,1.879-9.87"
		/>
	<path fill="none" stroke="#383636" stroke-width="5" stroke-linecap="round" stroke-linejoin="round" stroke-miterlimit="10" d="
		M134.264,267.705c3.214,3.591,8.702,12.968,9.928,15.59c3.062,1.042,12.232-1.852,14.148-5.03
		c1.054-1.745-1.424-8.626-2.469-15.391"/>
	<path fill="none" stroke="#383636" stroke-width="5" stroke-linecap="round" stroke-linejoin="round" stroke-miterlimit="10" d="
		M66.877,213.155c-5.124,4.806,4.727,13.439,9.048,15.612c8.718,4.382,20.678,4.718,30.315,4.516
		c14.487-0.303,27.263-3.514,39.935-11.123c3.572-2.142,7.043-4.724,10.24-7.294"/>
	<path fill="none" stroke="#383636" stroke-width="5" stroke-linecap="round" stroke-linejoin="round" stroke-miterlimit="10" d="
		M65.533,215.022c-18.319,14.102-20.834,39.262-19.893,41.652c0.746,1.891,3.096,6.625,9.149,8.617
		c3.569-8.458,9.152-14.713,15.138-21.964c-1.03,7.196,8.721,23.944,10.716,26.487c3.089,3.945,51.451,3.914,51.974,0.675
		c0.761-4.718-3.031-14.765-5.409-18.97c14.676,0.263,20.684,11.841,22.484,11.343c29.292-8.039,34.395-23.364,33.273-32.35
		c-2.353-2.64-14.316-16.042-26.41-17.631"/>
	<path fill="none" stroke="#383636" stroke-width="5" stroke-linecap="round" stroke-linejoin="round" stroke-miterlimit="10" d="
		M191.647,190.048c-15.144,5.51-31.202,8.709-40.121,8.29"/>
	<path fill="none" stroke="#383636" stroke-width="5" stroke-linecap="round" stroke-linejoin="round" stroke-miterlimit="10" d="
		M198.162,171.919c7.297-6.188,12.846-14.05,20.583-9.088c9.207,5.913-5.925,19.59-12.217,21.161"/>
	<path fill="none" stroke="#383636" stroke-width="5" stroke-linecap="round" stroke-linejoin="round" stroke-miterlimit="10" d="
		M97.177,213.03c13.748,3.347,25.227-0.794,24.656-11.197c-0.944-5.623-8.421-3.4-13.582-3.828"/>
	<path fill="none" stroke="#383636" stroke-width="5" stroke-linecap="round" stroke-linejoin="round" stroke-miterlimit="10" d="
		M76.219,181.465C66.037,182,62.053,192.927,63.528,198.94c2.066,8.455,12.137,11.092,19.168,11.419"/>
	<path fill="none" stroke="#383636" stroke-width="5" stroke-linecap="round" stroke-linejoin="round" stroke-miterlimit="10" d="
		M205.33,164.555c0.083-4.611-2.634-7.224-8.159-5.335c-6.943,2.365-6.374,9.247-3.208,13.344c0.388,0.498-0.498-0.314,0,0
		c-7.786-0.843-10.322,0.877-11.111,4.513c-2.148,9.891,10.921,10.444,16.427,8.467c0.092-0.031-11.483,11.089,2.928,14.319
		c5.684,1.271,9.35-6.976,6.133-13.904c2.753,2.551,10.124,8.855,15.428,1.788c2.927-3.896-2.457-9.949-8.122-9.375"/>
	<path fill="none" stroke="#383636" stroke-width="5" stroke-linecap="round" stroke-linejoin="round" stroke-miterlimit="10" d="
		M197.737,172.747c-2.53,5.781,0.77,11.954,7.441,11.716"/>
	<path fill="none" stroke="#383636" stroke-width="5" stroke-linecap="round" stroke-linejoin="round" stroke-miterlimit="10" d="
		M107.154,196.212c1.329-4.345-0.599-11.535-9.182-7.352c-7.911,3.85-1.467,10.233-1.348,9.842
		c-7.236-3.035-11.272,0.107-12.25,5.445c-1.403,7.706,2.716,12.852,10.463,8.706c-13.485,11.804,12.305,15.897,11.693,3.63"/>
	<path fill="#E38384" d="M136.5,123.167c0.896,6.77-8.329,11.154-12.866,15c4.992,4.695,24.871,4.155,26.149-3.932
		c-4.267-0.537-11.509-4.387-11.616-9.401"/>
	<path fill="none" stroke="#383636" stroke-width="5" stroke-linecap="round" stroke-linejoin="round" stroke-miterlimit="10" d="
		M107.142,197.947c-10.017-1.232-13.146,8.815-10.209,14.86"/>
	<path fill="none" stroke="#383636" stroke-width="5" stroke-linecap="round" stroke-linejoin="round" stroke-miterlimit="10" d="
		M108.193,116.711c-9.986,9.258-4.232,19.458,7.557,20.47c10.973,0.941,19.291-5.779,20.022-15.383c0.021-0.244,0.021-0.248,0,0
		c1.983,10.136,11.064,13.335,17.847,12.116c10.46-2.203,13.54-11.694,5.913-17.698"/>
	<circle fill="#383636" cx="82.516" cy="102.845" r="15.289"/>
	<circle fill="#383636" cx="178.696" cy="101.575" r="13.508"/>
	<path fill="none" stroke="#383636" stroke-width="5" stroke-linecap="round" stroke-linejoin="round" stroke-miterlimit="10" d="
		M78.118,79.752c6.39-1.314,14.516,1.294,17.702,6.378"/>
	<path fill="none" stroke="#383636" stroke-width="5" stroke-linecap="round" stroke-linejoin="round" stroke-miterlimit="10" d="
		M164.21,86.13c2.081-3.373,7.601-6.561,12.907-6.561"/>
	<path fill="#E38384" d="M187.418,122.93c3.441,5.797,23.838,9.411,25.897,0.599C216.563,109.61,179.088,108.925,187.418,122.93z"/>
	<path fill="none" stroke="#383636" stroke-width="5" stroke-linecap="round" stroke-linejoin="round" stroke-miterlimit="10" d="
		M122.25,137.269c4.04,7.481,25.25,6.205,27.083-3.102"/>
</g>
<g id="圖層_1_拷貝">
	<path opacity="0.3" fill="#231815" enable-background="new    " d="M298.925,277.822c-7.88,0.713-15.059,6.073-8.454,10.209
		c6.934,4.341,23.66,1.59,31.6,0.843c21.972-2.059,41.603,4.053,63.502,4.885c8.894,0.339,20.444,0.591,24.636-5.209
		c3.992-5.524-2.764-8.763-11.022-10.181c-14.028-2.41-31.455,1.802-45.404,2.335c-8.857,0.339-17.442,0.422-26.251-0.785
		c-8.727-1.198-19.407-0.249-27.624-2.367"/>
	<path fill="#4FAF74" d="M300.833,225.167c-3.932,3.67-6.649,6.897-11.667,9.407c-3.066,1.534-11.374,3.163-13.251,5.658
		c-3.376,4.487,10.06,20.592,15.243,24.017c8.022,5.301,21.359,6.666,31.008,7.576c11.131,1.05,22.888,0.953,34.017,0.324
		c5.643-0.319,11.448-2.577,14.576-7.942c5.21,6.798,21.092-1.609,27.405-4.791c10.932-5.509,15.087-11.44,10.409-23.25
		c-1.911-4.825-5.035-9.384-8.315-13.408c-4.633-5.682-6.184-7.084-12.759-7.186c-19.903-0.308-38.255,7.376-57.925,8.928
		c-8.04,0.635-14.192,0.29-22.075-1.001"/>
	<path fill="#4FAF74" d="M347.167,218.833c-15.67,8.194-33.724-3.346-27-21.591c4.447-12.066,18.953-13.674,30.341-13.075
		c22.832,1.201,17.457,37.054-4.674,35.667"/>
	<path fill="#F4B371" d="M305.833,185.167c-12.527,0.533-6.342,20.065,3.299,21.049c-5.212,9.06-11.364,16.831,1.034,21.96
		c9.601,3.971,22.624,5.254,33,5.665c10.502,0.416,22.76-3.352,32-7.349c10.444-4.519,20.091-5.797,16.324-18.974
		c-1.039-3.635-2.932-6.944-3.94-10.292c7.464-3.285,15.063-4.239,22.542-7.133c6.07-2.349,13.648-11.045,19.381-11.516
		c-7.744,1.409-15.072,1.38-15.282-8.95c-9.473,5.064-22.3,6.656-32.692,9.549c-10.432,2.904-21.345,4.441-31.665,6.332
		c-2.656,0.487-4.647-0.512-7.202,1.327c0.498,0.946,1.964,2.601,2.893,3.215c1.824-6.833,20.248-0.913,9.9,8.336
		c-6.651-8.39-23.76-1.194-17.843,8.7c1.868,3.123,11.433,2.725,6.177,8.342c-5.69,6.08-7.829-3.191-10.25-4.602
		c-0.671-0.391-0.141-1.265-0.134-1.705c-5.814,7.081-14.253-0.038-9.209-7.303c2.04-2.938,5.303-3.009,7.017-5.299
		c2.011-2.686,1.139-6.196,4.182-8.685c-5.072-7.848-22.431,1.156-28.866-3.665"/>
	<path fill="#FFFFFF" d="M339.25,185c3.236,0.848,5.315,2.792,6.444,5.913c4.567-9.308,18.8,2.729,10.337,7.643
		c5.202,5.757,4.584,15.869-4.282,16.194c-1.761,0.065-4.033-1.102-5.569-0.931c-1.406,0.157-2.668,1.511-4.426,1.986
		c-1.826,0.494-4.094,1.055-5.95-0.112c-2.013-1.265-1.387-3.733-2.618-4.638c-0.202-0.148-0.429-0.781-0.488-1.017
		c-4.629,1.589-5.62-1.969-7.863,2.814c-1.596,3.404-5.749,11.435-6.116,18.96c-0.61,5.819,41.248-0.523,50.529-0.563
		c10.625-0.046,15.66-5.305,14.441-14.931c-1.299-10.259-9.17-30.316-18.941-34.069"/>
	<path fill="#4FAF74" d="M444.167,159.5c-2.243-9.31-17.983-12.128-18.058-0.391c-14.013-1.225-16.32,22.176-1.326,20.775
		c-1.794,16.38,20.57,11.579,16.008,2.759c5.896,3.644,11.272-0.358,11.042-6.81c-0.191-5.372-4.422-12.422-8.333-16"/>
	<path fill="#F4B371" d="M373.5,261c-0.18,6.648,0.128,15.721,2.076,22.424c14.364-2.485,17.514-6.595,18.351-21.347
		c-2.182,1.136-5.485,0.586-7.839,1.347c-1.247-6.498-5.453-10.595-9.987-14.873C375.581,252.709,374.369,257.445,373.5,261"/>
	<path fill="#F4B371" d="M297,266.5c0.309,4.718-1.401,9.532-2.936,14.424c9.804,2.049,13.605,8.576,22.297-8.563
		c2.789-5.499,5.022-19.413,0.127-24.647c-2.128,6.064-10.867,19.224-16.988,19.786"/>
	<path fill="#F4B371" d="M432.167,176.5c-5.742,0.075-4.886-9.175-2.584-12.601c2.731-4.065,8.916-5.871,13.584-5.399
		c7.714,0.78,21.49,13.857,9,18.674c-4.619,1.781-16.434-0.743-20.667-0.008"/>
	<path fill="#F4B371" d="M307.669,48.189c-1.605-2.374-3.422-4.476-5.401-6.333c-0.135,0.503-0.272,1.005-0.438,1.498
		L307.669,48.189z"/>
	<path fill="#F4B371" d="M437.309,26.032c-25.411-13.163-43.76,10.849-61.043,15.867c-24.694,7.172-50-20.646-72.96-14.382
		c0.214,4.816,0.191,9.752-1.039,14.34c1.978,1.857,3.796,3.959,5.401,6.333l-5.838-4.835c0.165-0.494,0.303-0.996,0.438-1.498
		c-12.315-11.56-31.091-13.285-46.695-7.267c-21.15,8.166-26.424,33.807-19.697,55.191c2.52,8.001,7.99,18.103,17.595,17.031
		c-1.453,18.271-2.76,43.05,8.923,57.38c10.101,12.395,28.694,16.534,42.575,19.48c40.029,2.505,72.973,3.609,108.995-14.003
		c4.114-12.57,10.559-6.395,12.966-7.371c-5.24-10.304,6.674-9.951,9.892-16.815c2.302-4.901,5.215-17.039,5.531-23.216
		c0.911-17.885-8.027-31.486-13.982-47.705C451.607,88.849,444.043,35.075,437.309,26.032z"/>
	<path fill="#FFFFFF" d="M347.691,44.702c0.764,27.961-15.296,58.443-34.768,79.037c-11.636,12.296-44.001,46.85-14.524,57.939
		c26.058,9.811,63,1.557,88.813-4.641c12.16-2.915,19.918-6.189,31.021-12.338c7.291-4.046,17.669-15.729,18.447-24.754
		c1.673-19.415-28.853-34.661-49.287-47.443c-10.565-6.61-31.641-38.645-34.404-47.407c-1.826,0.578-5.195-0.622-6.918,0.416"/>
	<path fill="#E38384" d="M352.611,133.305c-0.884,5.764,2.884,16.317,4.985,21.841c2.034,5.364,5.41,7.552,11.168,8.43
		c9.758,1.479,21.858-0.498,16.373-12.805c-3.869-8.678-5.254-13.739-2.812-23.101c-4.813-0.951-9.485-5.268-13.093-8.079
		c-3.076,2.191-5.566,5.351-8.576,7.699c-2.853,2.222-6.499,3.375-9.518,5.584"/>
	<path fill="#E38384" d="M272.289,29.151c-11.806-35.644,50.172-10.256,62.168-1.179c5.403-6.312,21.268-1.967,28.758-3.425
		c8.581-1.67,8.058-9.446,15.963-13.615c11.027-5.818,33.714-14.983,37.765,3.023c0.49,2.168,1.194,4.336,1.406,6.694
		c-16.156-0.174-29.755,11.652-37.271,25.044c-15.44-5.455-56.935-2.512-70.88,4.985c-4.025-7.535-12.015-10.971-19.799-14.112
		c-6.148-2.485-16.612-2.235-20.523-7.313"/>
	<path fill="#FFFFFF" d="M277.16,68.63c2.376-2.404,13.141-9.149,13.151-12.11c0.014-6.907-26.293-14.98-31.566-13.478
		c-12.089,3.44-12.078,19.976-9.7,29.429c0.923,3.648,3.733,13.544,8.033,14.753C262.551,88.766,272.965,72.876,277.16,68.63z"/>
	<path fill="#FFFFFF" d="M412.37,55.452c2.899,2.599,6.278,11.278,9.69,12.098c11.903,2.848,12.14-25.767,7.239-31.555
		c-5.603-6.627-19.55-3.756-26.25-0.27C385.386,44.924,404.626,48.512,412.37,55.452z"/>
	<path opacity="0.3" fill="#231815" enable-background="new    " d="M280.504,30.253c-2.65-25.999,42.84,0.187,49.835,6.194
		c4.259-5.181,13.608-6.232,20.212-6.148c9.258,0.116,13.295,1.245,16.31,2.954c3.321-4.718,44.774-27.418,43.287-12.251
		c-0.066,0.724-4.377,0.835-4.304,1.581c-9.522,3.632-24.526,10.89-25.34,21.891c-16.937-3.877-31.971-3.956-49.642,0.082
		c-8.731,1.994-14.568,7.648-21.865,4.153c-7.492-3.582-11.52-11.979-19.782-14.467c-3.871-1.161-7.752-1.595-11.606-2.903"/>
	<path opacity="0.3" fill="#231815" enable-background="new    " d="M255.426,122.314c12.185,36.789,46.622,45.409,81.126,50.028
		c25.07,3.351,49.605-0.556,74.087-4.392c-6.885,12.7-34.075,11.892-46.435,13.341c-17.313,2.041-34.762,3.22-52.152,2.058
		c-14.689-0.978-35.872-4.998-46.187-16.533c-8.049-8.996-15.729-31.398-13.38-43.899c0.342-1.826,0.727-2.461,1.965-4.009"/>
	<path opacity="0.3" fill="#231815" enable-background="new    " d="M237.605,54.71c-1.078,14.394,7.592,37.699,20.826,43.148
		c-6.067,7.387-13.979,13.777-20.25,0.912c-6.437-13.221-4.507-29.965-1.661-44.015"/>
	<path opacity="0.3" fill="#231815" enable-background="new    " d="M440.282,36.907c2.477,12.531-0.028,27.649-12.179,34.376
		c2.108,3.796,2.386,7.437,6.615,7.692c4.232,0.254,9.398-5.346,10.811-8.853c2.895-7.178,2.604-25.468-2.303-31.525"/>
	<path fill="#6B5B4B" d="M341.034,45.358c2.848,5.272-1.869,28.384,15.547,23.128c4.947-1.488,3.318-15.335,2.639-19.894
		c-1.009-6.76-4.238-8.681-11.341-7.153c-2.48,0.536-4.814,1.636-6.856,3.191"/>
	<path fill="#6B5B4B" d="M318.078,48.965c1.219,4.41,1.296,22.737,12.345,18.142c5.975-2.485,4.069-20.302-0.516-21.776
		c-3.573-1.146-10.622,0.712-12.797,3.675"/>
	<path fill="#6B5B4B" d="M366.654,43.814c2.482,5.866,0.802,17.839,8.995,18.283c8.272,0.453,8.998-13.68,4.015-17.793
		c-2.708-2.239-10.863-2.414-13.744-0.943"/>
	<path opacity="0.3" fill="#231815" enable-background="new    " d="M354.39,144.859c5.752-7.236,19.915-11.642,27.542-5.623
		c-0.022-4.861,1.323-9.59,1.498-14.331c-4.615-0.763-12.167-2.864-15.4-6.267c-1.368,7.109-8.801,11.345-15.238,12.672
		c0.474,4.523-1.483,10.294-0.107,14.364"/>
	<path fill="#E38384" d="M268.866,139.566c7.825,6.099,38.229-0.123,36.534-13.377C302.723,105.281,249.968,124.841,268.866,139.566
		z"/>
	<path fill="#6B5B4B" d="M303.955,219.201c4.184,0.647,13.79,6.695,14.144-0.709c0.216-4.644-8.335-7.511-11.86-8.08
		c-1.917,2.871-3.659,6.061-2.326,9.304"/>
	<path fill="#6B5B4B" d="M390.931,202.399c-1.659,2.828-7.945,6.476-4.041,11.364c2.451,3.061,6.681-1.755,8.092-4.123
		c-0.957-3.269-2.142-6.603-4.318-7.595"/>
	<path opacity="0.3" fill="#231815" enable-background="new    " d="M384.833,180.833c-4.736,5.414-19.75,8.803-26.543,10.357
		c-1.794-4.948-8.782-0.573-12.041-1.44c-2.112-0.562-2.28-3.417-4.749-3.918c-2.697-0.546-4.605,0.974-6.749,2.242
		c-2.268,1.342,0.684,6.704-2.088,7.837c-1.674,0.684-2.32,0.151-4.103,0.092c-3.005-0.1-15.36-5.085-17.787-7.366
		c-1.457-1.369-1.69-1.366-1.934-3.389c23.214-0.912,43.113-1.332,65.994-4.824c2.892-0.441,6.038-1.106,8.667-1.593"/>
	<path opacity="0.3" fill="#231815" enable-background="new    " d="M305.75,215c7.709-7.7,12.772,2.665,19.749,3.755
		c1.793,0.28,3.117-0.534,5.182,0.057c1.923,0.55,3.531,2.219,5.556,2.701c3.763,0.896,8.062,0.43,11.574-0.702
		c3.564-1.148,8.046-3.073,9.401-7.024c-2.815,1.916-9.407,1.468-12.157-0.256c-0.648,3.012-5.072,3.608-7.556,2.787
		c-3.435-1.136-3.559-3.23-4.049-6.475c-8.23,4.12-8.321-2.896-13.951-4.343c-6.688-1.72-11.463,1.608-13.5,7.5"/>
	<path opacity="0.3" fill="#231815" enable-background="new    " d="M299.25,273.25c5.402,1.229,11.751-12.972,17.262-4.838
		c0.244-5.966,6.654-16.72-0.449-21.125c-5.702,8.302-14.051,16.776-17.563,25.462"/>
	<path opacity="0.3" fill="#231815" enable-background="new    " d="M375,261.25c4.706,2.413,9.471,11.74,15.057,11.943
		c4.352,0.158,4.117-5.684,3.155-10.155c-5.859,0.192-5.815-0.48-9.018-5.538c-2.24-3.538-3.836-7.888-8.407-8.462
		c-0.235,3.068-0.253,7.06-1.288,9.712"/>
	<g>
		<path opacity="0.3" fill="#231815" enable-background="new    " d="M304.25,228.5l0.557-0.372
			c-0.183-0.223-0.367-0.446-0.563-0.664C303.646,227.932,304.347,228.037,304.25,228.5z"/>
		<path opacity="0.3" fill="#231815" enable-background="new    " d="M385,225.25l-3.5-0.25c-6.325,1.952-14.153,3.391-19.87,7.235
			c-14.796,3.805-33.619,2.681-47.893-1.478c-2.413-0.703-5.859-2.963-7.237-3.756l-5.096,0.464
			c7.582,9.233,2.596,30.423-1.08,37.601c4.547-3.309,13.1-13.485,15.683-18.478c4.523,5.555,5.235,18.714,3.518,25.599
			c6.245,2.205,18.966,3.348,25.225,1.258c0.69-0.23,1.354-0.537,1.996-0.9c4.004,0.333,7.209-0.956,11.466-1.831
			c-0.138-2.095-0.229-15.546,4.753-26.514C368.011,235.598,376.043,228.483,385,225.25z"/>
	</g>
	<g>
		<path fill="none" stroke="#383636" stroke-width="5" stroke-linecap="round" stroke-linejoin="round" stroke-miterlimit="10" d="
			M387.912,47.768c-24.484-8.412-62.151-5.765-82.524,5.589"/>
		<path fill="none" stroke="#383636" stroke-width="5" stroke-linecap="round" stroke-linejoin="round" stroke-miterlimit="10" d="
			M434.658,151.395c14.017-22.962,6.739-58.016-8.064-79.404"/>
		<path fill="none" stroke="#383636" stroke-width="5" stroke-linecap="round" stroke-linejoin="round" stroke-miterlimit="10" d="
			M258.432,97.858c-4.988,13.282-8.842,24.986-5.063,44.463c8,32.618,35.398,42.24,71.588,42.347
			c28.007,0.495,64.838-2.547,88.524-15.703"/>
		<path fill="none" stroke="#383636" stroke-width="5" stroke-linecap="round" stroke-linejoin="round" stroke-miterlimit="10" d="
			M253.936,104.607c-19.743,6.546-21.71-30.183-18.71-45.136c5.241-26.076,19.536-32.78,46.352-26.449
			c6.511,2.191,27.879,8.57,26.682,17.203"/>
		<path fill="none" stroke="#383636" stroke-width="5" stroke-linecap="round" stroke-linejoin="round" stroke-miterlimit="10" d="
			M382.266,44.591c-6.807-9.341,37.395-31.476,52.386-18.57c14.323,12.334,17.714,55.319-1.406,51.804"/>
		<path fill="none" stroke="#383636" stroke-width="5" stroke-linecap="round" stroke-linejoin="round" stroke-miterlimit="10" d="
			M332.611,44.456c-6.366-5.871-1.647-19.487,14.606-21.51c12.825-1.589,26.014,9.286,16.703,18.609"/>
		<path fill="none" stroke="#383636" stroke-width="5" stroke-linecap="round" stroke-linejoin="round" stroke-miterlimit="10" d="
			M272.224,30.779c-5.542-7.831-1.133-21.988,16.628-21.614c17.41,0.368,36.881,14.786,44.882,19.97"/>
		<path fill="none" stroke="#383636" stroke-width="5" stroke-linecap="round" stroke-linejoin="round" stroke-miterlimit="10" d="
			M363.216,24.545c13.687-14.665,58.52-33.639,54.584-4.903"/>
		<path fill="none" stroke="#383636" stroke-width="5" stroke-linecap="round" stroke-linejoin="round" stroke-miterlimit="10" d="
			M337.6,111.73c-9.117,10.115-2.473,19.759,9.359,19.711c11.013-0.045,20.113-7.616,19.981-17.247
			c-0.001-0.245-0.007-0.242-0.005,0.007c2.882,9.918,10.802,12.418,17.449,10.596c10.221-3.131,12.439-12.859,4.305-18.156"/>
		<path fill="none" stroke="#383636" stroke-width="5" stroke-linecap="round" stroke-linejoin="round" stroke-miterlimit="10" d="
			M354.216,131.155c-3.263,5.408-0.044,23.606,4.517,28.172c5.093,5.092,20.523,4.958,26.035,0.403
			c7.043-5.815-1.467-8.366-2.673-14.038c-1.238-5.826-1.655-11.243,0.926-18.093"/>
		<circle fill="#383636" cx="313.364" cy="105.539" r="15.289"/>
		<circle fill="#383636" cx="409.044" cy="95.664" r="13.508"/>
		<path fill="none" stroke="#383636" stroke-width="5" stroke-linecap="round" stroke-linejoin="round" stroke-miterlimit="10" d="
			M306.916,82.933c6.247-1.881,14.574-0.011,18.202,4.768"/>
		<path fill="none" stroke="#383636" stroke-width="5" stroke-linecap="round" stroke-linejoin="round" stroke-miterlimit="10" d="
			M393.234,81.578c1.771-3.546,6.983-7.215,12.268-7.69"/>
		<path fill="#E38384" d="M419.643,116.152c3.946,5.466,24.585,7.239,25.847-1.722C447.478,100.277,410.093,102.949,419.643,116.152
			z"/>
		<path fill="none" stroke="#383636" stroke-width="5" stroke-linecap="round" stroke-linejoin="round" stroke-miterlimit="10" d="
			M387.529,197.171c-0.082-0.19,5.939,10.616,6.939,19.079"/>
		<path fill="none" stroke="#383636" stroke-width="5" stroke-linecap="round" stroke-linejoin="round" stroke-miterlimit="10" d="
			M297.124,267.101c1.642,12.464-3.934,11.973-1.688,14.704c1.432,1.742,8.062,1.751,10.731,1.706
			c2.684-0.046,7.936-1.706,12.921-21.529"/>
		<path fill="none" stroke="#383636" stroke-width="5" stroke-linecap="round" stroke-linejoin="round" stroke-miterlimit="10" d="
			M394.468,263.75c-1.303,11.97-4.854,16.435-6.801,18.056c-2.34,1.947-8.128,2.765-11.237,1.706c-3.904,0.197,0-9.164-2.859-25.31"
			/>
		<path fill="none" stroke="#383636" stroke-width="5" stroke-linecap="round" stroke-linejoin="round" stroke-miterlimit="10" d="
			M335.433,207.692c1.774,0.252,2.19,0.456,4.009,1.25c3.514,1.534,6.099,5.266,9.819,6.194c11.219,2.799,13.474-8.726,4.247-16.101
			c-2.244-1.793-4.776-4.026-10.381-4.026"/>
		<path fill="none" stroke="#383636" stroke-width="5" stroke-linecap="round" stroke-linejoin="round" stroke-miterlimit="10" d="
			M307.133,184.213c-6.993,0.972-9.162,8.483-9.066,11.353c0.139,4.155,2.474,8.189,6.444,9.724c6.144,2.376,10.11,1.091,16.697,0"
			/>
		<path fill="none" stroke="#383636" stroke-width="5" stroke-linecap="round" stroke-linejoin="round" stroke-miterlimit="10" d="
			M344.038,194.692c-2.558-0.063-5.89,3.385-7.046,5.491c-1.344,2.448-2.304,4.953-0.788,7.509"/>
		<path fill="none" stroke="#383636" stroke-width="5" stroke-linecap="round" stroke-linejoin="round" stroke-miterlimit="10" d="
			M345.08,194.691c1.539-3.285-0.286-10.402-9.027-7.351c-5.664,1.977-2.787,9.764-0.62,11.696
			c-5.853-3.632-14.229-0.619-12.978,6.782c1.024,6.052,7.087,8.228,12.35,1.896c-4.85,9.403,8.658,10.887,9.733,5.312"/>
		<path fill="none" stroke="#383636" stroke-width="5" stroke-linecap="round" stroke-linejoin="round" stroke-miterlimit="10" d="
			M386.322,265.065c14.178-3.083,23.787-12.333,24.318-14.065c3.549-11.572-6.826-25.724-16.172-34.75"/>
		<path fill="none" stroke="#383636" stroke-width="5" stroke-linecap="round" stroke-linejoin="round" stroke-miterlimit="10" d="
			M317.5,271.09c17.933,4.66,42.5,1.658,51.25-3.09"/>
		<path fill="none" stroke="#383636" stroke-width="5" stroke-linecap="round" stroke-linejoin="round" stroke-miterlimit="10" d="
			M301.404,224.288c-11.882,14.012-21.604,12.667-26.399,17.528C277.167,253.167,288,265.417,300.324,268"/>
		<path fill="none" stroke="#383636" stroke-width="5" stroke-linecap="round" stroke-linejoin="round" stroke-miterlimit="10" d="
			M387.529,197.171c15.47-1.666,36.471-12.769,43.323-18.558"/>
		<path fill="none" stroke="#383636" stroke-width="5" stroke-linecap="round" stroke-linejoin="round" stroke-miterlimit="10" d="
			M428.908,164.392c-5.922-8.007-13.798-0.977-14.943,5.276c-1.37,7.475,6.568,13.548,13.693,9.5"/>
		<path fill="none" stroke="#383636" stroke-width="5" stroke-linecap="round" stroke-linejoin="round" stroke-miterlimit="10" d="
			M426.923,162.308c-7.586-7.025,11.163-17.14,15.235-4.14"/>
		<path fill="none" stroke="#383636" stroke-width="5" stroke-linecap="round" stroke-linejoin="round" stroke-miterlimit="10" d="
			M428.408,165.168c4.167-7.304,17.5-6.106,23.418-1.5c7.327,5.702,5.091,13.77-4.668,13.999c-5.835,0.137-10.265-3.995-15.5,0.501"
			/>
		<path fill="none" stroke="#383636" stroke-width="5" stroke-linecap="round" stroke-linejoin="round" stroke-miterlimit="10" d="
			M428.658,165.168c-2.121,3.964-0.874,10.575,3.75,12.5"/>
		<path fill="none" stroke="#383636" stroke-width="5" stroke-linecap="round" stroke-linejoin="round" stroke-miterlimit="10" d="
			M427.408,181.418c-8.255,12.506,25.167,14.75,10.678-3.787"/>
		<path fill="none" stroke="#383636" stroke-width="5" stroke-linecap="round" stroke-linejoin="round" stroke-miterlimit="10" d="
			M442.158,181.918c1.939,2.868,11.004,2.61,9.5-4"/>
		<path fill="none" stroke="#383636" stroke-width="5" stroke-linecap="round" stroke-linejoin="round" stroke-miterlimit="10" d="
			M300.324,268c5.829-2.839,12.526-15.942,15.488-21.975c4.634,6.218,2.94,16.261,3.188,23.725"/>
		<path fill="none" stroke="#383636" stroke-width="5" stroke-linecap="round" stroke-linejoin="round" stroke-miterlimit="10" d="
			M368.75,268c3.368-6.016,5.841-13.592,7.043-20.219c4.585,2.098,9.825,12.493,10.529,17.284"/>
		<path fill="none" stroke="#383636" stroke-width="5" stroke-linecap="round" stroke-linejoin="round" stroke-miterlimit="10" d="
			M301.404,224.288c6.429,8.867,30.362,9.92,35.738,9.838c32.672-0.502,51.161-8.849,57.326-17.875"/>
		<path fill="none" stroke="#383636" stroke-width="5" stroke-linecap="round" stroke-linejoin="round" stroke-miterlimit="10" d="
			M346.833,191.833c4.304-7.431,16.655-0.66,8.333,7.667"/>
		<path fill="none" stroke="#383636" stroke-width="5" stroke-linecap="round" stroke-linejoin="round" stroke-miterlimit="10" d="
			M301.166,225.276c1.274-5.128,3.837-9.412,7.673-18.825"/>
	</g>
</g>
</svg>
