<?xml version="1.0" encoding="utf-8"?>
<!-- Generator: Adobe Illustrator 17.0.0, SVG Export Plug-In . SVG Version: 6.00 Build 0)  -->
<!DOCTYPE svg PUBLIC "-//W3C//DTD SVG 1.1//EN" "http://www.w3.org/Graphics/SVG/1.1/DTD/svg11.dtd">
<svg version="1.1" id="圖層_1" xmlns="http://www.w3.org/2000/svg" xmlns:xlink="http://www.w3.org/1999/xlink" x="0px" y="0px"
	 width="180px" height="165px" viewBox="0 0 180 165" enable-background="new 0 0 180 165" xml:space="preserve">
<g>
	<path opacity="0.3" fill="#231815" d="M10.478,136.743c7.263,15.132,20.63,23.524,37.137,26.328
		c19.022,3.235,31.724-7.701,48.479-8.274c17.63-0.608,34.162-0.483,50.418-7.351c8.738-3.695,33.411-19.049,18.811-28.881
		c-11.585-7.801-42.748,3.221-54.813,6.973c-18.361,5.714-35.98,11.478-55.158,13.772c-8.516,1.017-16.97,1.195-25.387-0.493
		c-6.335-1.271-15.58-5.747-21.031-1.559"/>
	<path fill="#97B5DF" d="M35.063,35.998C20.387,53.574,23.515,83.238,33,102c10.595,20.949,27.489,34.041,49.857,39.215
		c21.565,4.989,51.282,1.77,69.55-9.711c11.412-7.173,8.783-12.082,16.408-22.953c7.614-10.857,7.522-28.634,6.216-40.993
		c-2.366-22.399-12.951-42.529-35.171-55.488c-10.038-5.852-19.474-8.325-31.215-9.424c-13.521-1.263-28.013,2.974-40.575,7.91
		c-12.174,4.784-33.56,13.119-36.101,28.193"/>
	<path fill="#F5E38C" d="M165.317,37.717c-7.097-5.41-7.456-7.717-14.725-12.511c-6.583-4.342-10.35-7.824-17.566-10.4
		c-9.948-3.549-29.508-4.765-40.051,2.28c-3.249,2.171-4.952,8.816-4.178,12.285c0.953,4.266,11.385,12.131,14.415,15.824
		c15.52,18.932,27.671,41.162,37.486,63.446c4.412,10.022,8.809,25.421,20.889,14.623c8.606-7.692,10.079-22.537,13.082-32.938
		c3.897-13.495-3.704-36.884-6.567-49.857"/>
	<path fill="#EB6968" d="M94.031,22.898c28.842,10.256,52.523,53.451,59.235,68.324c3.428,7.594,11.625,26.192,5.599,32.945
		c-5.807,6.509-15.45,10.157-23.294,14.432c-10.471,5.706-15.386,6.409-27.1,3.287c-12.61-3.36-18.016-12.928-21.661-24.509
		c-7.28-23.134-13.889-72.093-9.28-88.256c6.195-3.18,7.456-2.605,12.854-6.782"/>
	<path fill="#87C575" d="M85.265,20.569c37.477-8.251,64.741,2.245,84.578,25.574c3.564,4.19-8.872-17.757-21.827-27.289
		C130.501,2.42,98.275,1.889,92.193,4.264c-9.001,3.521-9.309,13.924-11.398,21.764"/>
	<path fill="#E0E44C" d="M66.308,28.729C42.1,45.157,27.572,72.034,30.969,104.142c-10.658-18.379-12.41-50.715,7.896-75.37
		c2.588-3.145,15.974-12.747,19.881-13.965c-0.212,1.619,11.788,12.24,8.982,11.305"/>
	<path opacity="0.3" fill="#231815" d="M163.205,34.967c11.911,22.35,2.517,108.431-105.906,77.808
		c-11.546-3.258-23.463-5.431-31.036-18.979c6.207,9.251,8.982,19.55,16.966,27.559c8.752,8.783,18.969,12.104,30.344,16.171
		c13.643,4.876,28.099,8.178,42.567,5.962c11.564-1.769,23.274-7.149,33.412-13.354c21.664-13.263,30.038-39.768,26.464-63.799
		c-1.935-13.014-6.174-21.15-13.035-32.562"/>
	<path fill="#FFFFFF" d="M18.988,81.041C5.008,93.829-0.433,115.156,7.385,132.861c4.283,9.701,10.155,11.279,19.082,14.649
		c8.058,3.044,15.992,6.328,24.5,6.509c8.368,0.181,17.4-2.428,24.81-6.137c8.797-4.404,11.519-10.802,15.161-19.392
		c7.22-17.034,2.155-36.35-12.115-47.694c-13.314-10.578-38.192-14.559-53.645-4.391c-2.567,1.69-4.478,4.256-6.965,6.182"/>
	<path fill="none" d="M52.77,71.498c-20.846,7.232-32.236,38.172-32.236,58.282c0,6.417,0.195,14.045,2.857,19.616
		c0.199-0.006,0.201-0.008,0.006-0.004c-5.953-3.245-11.689-14.171-14.479-20.127c-3.555-7.585-4.917-17.295-3.325-25.786
		c1.522-8.144,6.963-16.313,13.08-21.93c6.817-6.259,14.686-6.499,23.268-7.785c2.865-0.429,6.953-0.296,9.282-1.748"/>
	<path fill="#D3536E" d="M67.727,76.916c-24.34-1.142-49.76,31.478-53.62,53.293c-0.563,3.178-0.372,6.575-0.345,9.867
		c-4.831-9.243-10.88-14.925-9.966-27.354c0.744-10.139,5.272-22.605,12.858-29.691c13.287-12.417,39.607-15.829,49.354-6.804"/>
	<path fill="#EEEB7A" d="M77.012,83.448c5.172,6.877-0.729,26.573-3.687,34.382c-4.387,11.589-12.244,22.294-21.429,30.611
		c-8.74,7.914-20,2.915-29.898-1.803c-13.242-6.31-11.761-18.862-7.994-31.825c6.982-24.02,35.834-48.994,60.008-35.243
		c1.734,0.986,3.399,2.346,5.063,3.533"/>
	<path fill="#6CBC66" d="M83.888,86.196c13.236,17.322,16.52,45.58-3.362,59.829c-8.463,6.067-30.127,12.138-39.68,6.567
		c12.581-6.895,19.169-16.833,25.768-30.291c2.691-5.48,11.428-24.241,9.613-41.164c1.604-0.201,6.996,4.78,8.348,5.749"/>
	<path opacity="0.3" fill="#231815" d="M7.901,97.89c3.225,31.882,34.234,41.926,63.352,37.2
		c10.282-1.666,17.929-6.125,22.873-15.167c3.517,24.502-30.231,39.589-49.787,35.378c-21.017-4.527-42.017-21.715-40.22-45.72
		c0.333-4.48,1.82-8.103,2.75-12.379"/>
	<path fill="#ED8C37" d="M45.035,20.525c4.862,1.214,10.669,0.99,15.549,1.986c6.774,1.384,8.267,2.253,14.288,0.327
		c5.402-1.73,5.188-0.479,8.588-4.591c3.077-3.722,7.737-10.952,11.398-14.156c-9.506,0.52-18.211,1.968-27.472,5.519
		c-6.46,2.477-20.135,5.597-22.695,12.977"/>
	<path fill="#FFFFFF" stroke="#B8B8B8" stroke-width="0.9534" stroke-miterlimit="10" d="M74.037,17.385
		c-7.095,3.87-10.237,11.028-3.642,15.097c5.203,3.208,15.117-0.144,19.932-3.816c5.355-4.083,6.856-12.414-0.819-14.119
		C81.514,12.774,74.037,17.385,74.037,17.385z"/>
	<g>
		<path fill="none" stroke="#383636" stroke-width="3" stroke-linecap="round" stroke-linejoin="round" stroke-miterlimit="10" d="
			M58.443,154.019c50.545-6.924,45.903-70.097,1.547-81.419C26.12,63.957-0.613,90.222,4.971,121.27
			C9.151,144.497,34.958,157.24,58.443,154.019z"/>
		<path fill="none" stroke="#383636" stroke-width="3" stroke-linecap="round" stroke-linejoin="round" stroke-miterlimit="10" d="
			M84.681,141.697c39.406,7.224,84.091-5.749,89.988-51.371c6.852-53.01-27.515-89.744-80.811-86.648
			C48.892,6.287,21.17,34.967,23.286,76.563"/>
	</g>
</g>
</svg>
